<?xml version="1.0" standalone="no"?>
<!DOCTYPE svg PUBLIC "-//W3C//DTD SVG 1.1//EN" "http://www.w3.org/Graphics/SVG/1.1/DTD/svg11.dtd" >
<!--
2013-9-30: Created.
-->
<svg>
<metadata>
Created by iconfont
</metadata>
<defs>

<font id="iconfont" horiz-adv-x="1024" >
  <font-face
    font-family="iconfont"
    font-weight="500"
    font-stretch="normal"
    units-per-em="1024"
    ascent="896"
    descent="-128"
  />
    <missing-glyph />
    
    <glyph glyph-name="x" unicode="x" horiz-adv-x="1001"
d="M281 543q-27 -1 -53 -1h-83q-18 0 -36.5 -6t-32.5 -18.5t-23 -32t-9 -45.5v-76h912v41q0 16 -0.5 30t-0.5 18q0 13 -5 29t-17 29.5t-31.5 22.5t-49.5 9h-133v-97h-438v97zM955 310v-52q0 -23 0.5 -52t0.5 -58t-10.5 -47.5t-26 -30t-33 -16t-31.5 -4.5q-14 -1 -29.5 -0.5
t-29.5 0.5h-32l-45 128h-439l-44 -128h-29h-34q-20 0 -45 1q-25 0 -41 9.5t-25.5 23t-13.5 29.5t-4 30v167h911zM163 247q-12 0 -21 -8.5t-9 -21.5t9 -21.5t21 -8.5q13 0 22 8.5t9 21.5t-9 21.5t-22 8.5zM316 123q-8 -26 -14 -48q-5 -19 -10.5 -37t-7.5 -25t-3 -15t1 -14.5
t9.5 -10.5t21.5 -4h37h67h81h80h64h36q23 0 34 12t2 38q-5 13 -9.5 30.5t-9.5 34.5q-5 19 -11 39h-368zM336 498v228q0 11 2.5 23t10 21.5t20.5 15.5t34 6h188q31 0 51.5 -14.5t20.5 -52.5v-227h-327z" />
    

    
    <glyph glyph-name="yonghu" unicode="&#58883;" d="M541.636727 896q29.636727 0 58.762475-6.642715t54.674651-17.884232 45.477046-25.548902 31.169661-28.61477q26.570858-32.702595 38.834331-72.047904t17.373253-75.113772q5.10978-40.878244 5.10978-82.778443 7.153693-5.10978 11.241517-13.285429 4.087824-7.153693 6.642715-18.39521t0.510978-27.592814q-2.043912-21.461078-8.686627-34.235529t-14.818363-19.928144q-9.197605-8.175649-19.417166-11.241517-5.10978-17.373253-10.219561-32.702595-5.10978-13.285429-11.752495-26.05988t-14.818363-19.928144q-19.417166-15.329341-31.680639-26.05988t-16.351297-36.279441q-3.065868-15.329341-2.043912-31.169661t8.686627-31.680639 23.50499-30.147705 44.45509-25.548902q25.548902-10.219561 55.696607-18.39521t58.762475-18.906188 50.586826-26.570858 31.169661-43.433134q5.10978-16.351297 7.664671-40.367265t2.55489-48.542914-3.576846-45.988024-10.730539-32.702595q-5.10978-7.153693-29.125749-14.307385t-59.273453-13.796407-78.690619-11.752495-87.377246-8.686627-84.311377-5.620758-70.003992-2.043912-68.982036 2.043912-81.245509 5.620758-83.289421 8.175649-75.113772 9.708583-57.229541 10.219561-29.636727 10.219561q-10.219561 8.175649-15.840319 50.075848t4.598802 108.327345q5.10978 37.812375 30.147705 57.740519t58.251497 31.680639 68.982036 20.9501 63.361277 26.570858q21.461078 13.285429 32.702595 25.548902t16.351297 24.526946 5.10978 25.548902-1.021956 29.636727q-2.043912 23.50499-16.351297 37.301397t-31.680639 28.103792q-8.175649 7.153693-14.307385 19.928144t-11.241517 26.05988q-5.10978 15.329341-10.219561 32.702595-7.153693 2.043912-14.307385 7.153693-6.131737 5.10978-13.285429 14.307385t-12.263473 26.570858q-6.131737 17.373253-4.598802 31.680639t5.620758 24.526946q4.087824 11.241517 13.285429 21.461078-1.021956 38.834331 4.087824 77.668663 4.087824 32.702595 14.818363 70.51497t32.191617 67.449102q19.417166 28.61477 43.433134 46.499002t49.053892 28.103792 50.075848 13.796407 48.542914 3.576846z"  horiz-adv-x="1024" />

    
    <glyph glyph-name="wenjian" unicode="&#58881;" d="M858.114245 666.189987c-0.004093 0.064468-0.011257 0.127913-0.01535 0.192382-0.036841 0.615007-0.097218 1.223874-0.171922 1.827625-0.011257 0.086981-0.02149 0.173962-0.032747 0.260943-0.376592 2.826372-1.15536 5.52176-2.281043 8.029884-0.005117 0.011256-0.010233 0.022513-0.01535 0.033769-0.557725 1.240247-1.199364 2.435469-1.917754 3.576455-0.078798 0.124843-0.157596 0.248663-0.23844 0.37146-0.314168 0.481977-0.637546 0.956791-0.979344 1.417279-0.125872 0.170892-0.257884 0.337691-0.387849 0.505513-0.25686 0.332575-0.520884 0.660032-0.791048 0.980327-0.195459 0.233314-0.393989 0.463558-0.597635 0.690732-0.191366 0.212848-0.388872 0.417509-0.585355 0.623193-0.212856 0.225127-0.413433 0.457418-0.634476 0.676405L689.67626 842.342939c-4.525245 4.585435-10.560953 7.66968-17.301747 8.456602-0.01842 0.002047-0.035817 0.004093-0.054237 0.00614-0.655966 0.075725-1.316026 0.13303-1.983249 0.163729-0.148385 0.007163-0.296771 0.00614-0.445156 0.011256-0.309051 0.00921-0.618102 0.023536-0.9292 0.023536L188.712558 851.004203c-16.079869 0-29.109137-13.028735-29.109137-29.123294l0-873.794c0-16.093537 13.029268-29.122271 29.109137-29.122271l640.339624 0c16.079869 0 29.108114 13.028735 29.108114 29.122271L858.160296 664.579303C858.160296 665.119609 858.142899 665.656845 858.114245 666.189987zM698.072832 752.446513l59.786044-58.730613-59.786044 0L698.072832 752.446513zM799.940998-22.77547 217.807369-22.77547 217.807369 792.758638l422.046165 0 0-128.179334c0-16.093537 13.058945-29.122271 29.109137-29.122271l130.978327 0L799.940998-22.77547zM717.886898 380.038782 314.515813 380.038782c-16.079869 0-29.109137-13.028735-29.109137-29.123294 0-16.107863 13.029268-29.136597 29.109137-29.136597l403.370061 0c16.053262 0 29.111184 13.027711 29.111184 29.136597C746.998082 367.010047 733.939137 380.038782 717.886898 380.038782zM285.406676 473.25072c0-16.107863 13.029268-29.136597 29.109137-29.136597l403.370061 0c16.053262 0 29.111184 13.028735 29.111184 29.136597 0 16.09456-13.058945 29.123294-29.111184 29.123294L314.515813 502.374014C298.435944 502.374014 285.406676 489.344257 285.406676 473.25072zM717.886898 257.731178 314.515813 257.731178c-16.079869 0-29.109137-13.027711-29.109137-29.121248 0-16.107863 13.029268-29.136597 29.109137-29.136597l403.370061 0c16.053262 0 29.111184 13.027711 29.111184 29.136597C746.998082 244.702444 733.939137 257.731178 717.886898 257.731178zM717.886898 135.396969 314.515813 135.396969c-16.079869 0-29.109137-13.028735-29.109137-29.123294 0-16.10684 13.029268-29.136597 29.109137-29.136597l403.370061 0c16.053262 0 29.111184 13.028735 29.111184 29.136597C746.998082 122.367211 733.939137 135.396969 717.886898 135.396969z"  horiz-adv-x="1024" />

    
    <glyph glyph-name="msnui-save-bold" unicode="&#58908;" d="M846.799-63.154h-671.46c-1.56 0.54-3.060 1.26-4.62 1.56-38.88 6.96-91.020 51.72-104.16 88.8-2.28 6.36-3.42 13.14-5.16 19.8v671.46c0.54 1.56 1.32 3.060 1.62 4.62 7.979 42.66 59.58 95.4 101.28 106.62 3.66 0.959 7.38 1.8 11.099 2.7h597.78c-44.34 9.78 151.2-15.9 189.42-187.56v-597.84c-0.54-1.5-1.26-3-1.56-4.62-7.979-42.721-61.441-91.68-103.139-102.9-3.66-0.959-7.38-1.8-11.099-2.64v0zM511.1 51.745c96.18 0 198 0 294.18 0.060 24.48 0 37.38 12.84 37.38 37.080 0 105.54 0 124.86 0 230.4 0 24.3-13.020 37.44-37.080 37.44-192.66 0-396.54 0-589.14 0-23.7 0-36.96-13.14-36.96-36.72-0.060-105.84-0.060-125.401 0-231.18 0-3.84 0.12-7.8 0.959-11.46 3.96-16.74 16.5-25.5 36.481-25.5 96.24-0.179 198.060-0.12 294.18-0.12v0zM494.54 472.646h188.939c26.341 0 39.060 12.659 39.060 38.94 0 71.939 0 91.32 0 163.26 0 26.46-12.42 38.88-38.94 38.88-137.22 0-268.8 0-406.020 0-25.98 0-38.7-12.6-38.7-38.399-0.060-72.18-0.060-91.861 0-164.040 0-25.8 12.84-38.58 38.58-38.58 68.64-0.060 148.44-0.060 217.080-0.060v0zM541.461 656.006h118.14v-121.501h-118.14v121.501zM541.461 656.006z"  horiz-adv-x="1024" />

    
    <glyph glyph-name="msnui-db" unicode="&#59026;" d="M76.231-16.556c0 0 216-48.487 434.531-48.487 217.237 0 437.063 48.487 437.063 48.487v237.319l-871.594 0.844v-238.162zM76.231 268.069h871.594v235.631h-871.594v-235.631zM517.175 833.044c-218.306 0-441.001-48.319-441.001-48.319v-234.337h871.706v234.337c-0.055 0-213.412 48.319-430.706 48.319v0zM517.175 833.044z"  horiz-adv-x="1024" />

    
    <glyph glyph-name="msnui-item-list" unicode="&#59051;" d="M130.64-34.054v838.852c0 17.68-14.344 32.042-32.023 32.042s-32.024-14.362-32.024-32.042v-838.852c0-17.68 14.345-32.005 32.023-32.005s32.024 14.325 32.024 32.005zM685.153 207.557c0 10.607-8.602 19.208-19.211 19.208h-465.423c-10.625 0-19.229-8.602-19.229-19.208v-126.566c0-10.608 8.603-19.21 19.229-19.21h465.422c10.609 0 19.211 8.602 19.211 19.21v126.566zM955.432 450.988c0 10.608-8.583 19.211-19.229 19.211h-735.683c-10.625 0-19.229-8.604-19.229-19.211v-126.564c0-10.609 8.603-19.212 19.229-19.212h735.683c10.645 0 19.229 8.603 19.229 19.212v126.564zM181.291 694.382v-126.545c0-10.626 8.603-19.229 19.229-19.229h611.197c10.607 0 19.21 8.603 19.21 19.229v126.545c0 10.609-8.603 19.247-19.21 19.247h-611.198c-10.625 0-19.228-8.639-19.228-19.247z"  horiz-adv-x="1024" />

    
    <glyph glyph-name="msnui-running" unicode="&#59191;" d="M723.598 337.267v94.21l-107.323 30.657c-2.936 8.395-6.337 16.571-10.166 24.501l54.22 97.598-66.605 66.622-97.649-54.245c-7.907 3.814-16.059 7.204-24.428 10.131l-30.687 107.381h-94.217l-30.686-107.381c-8.363-2.926-16.508-6.313-24.41-10.125l-97.621 54.239-66.673-66.622 54.249-97.642c-3.818-7.913-7.21-16.071-10.14-24.447l-107.357-30.667v-94.21l107.366-30.67c2.929-8.371 6.318-16.525 10.136-24.434l-54.254-97.654 66.673-66.606 97.621 54.239c7.901-3.812 16.046-7.198 24.408-10.124l30.688-107.398h94.217l30.689 107.398c8.367 2.927 16.518 6.316 24.425 10.13l97.649-54.245 66.605 66.606-54.224 97.611c3.828 7.926 7.227 16.098 10.162 24.488l107.331 30.659zM393.847 274.458c-60.72 0-109.93 49.22-109.93 109.928 0 60.677 49.211 109.912 109.93 109.912 60.732 0 109.923-49.235 109.923-109.912-0-60.708-49.191-109.928-109.923-109.928zM949.412 499.89l11.253 40.336-42.308 25.961c-0.254 3.934-0.732 7.831-1.422 11.674l34.892 35.334-20.564 36.482-48.293-11.561c-2.929 2.577-6.013 5.001-9.245 7.254l-0.31 49.648-40.352 11.255-25.966-42.312c-3.93-0.254-7.823-0.732-11.662-1.421l-35.316 34.876-36.504-20.548 11.569-48.314c-2.572-2.924-4.992-6.003-7.241-9.229l-49.654-0.305-11.268-40.35 42.336-25.972c0.254-3.925 0.731-7.812 1.418-11.647l-34.902-35.344 20.581-36.473 48.274 11.555c2.929-2.578 6.014-5.003 9.248-7.256l0.31-49.639 40.35-11.269 25.966 42.322c3.933 0.254 7.827 0.731 11.668 1.42l35.329-34.888 36.481 20.564-11.563 48.298c2.577 2.929 5.001 6.013 7.254 9.245l49.638 0.304zM860.923 546.329c-7.261-25.998-34.199-41.194-60.207-33.93-26 7.249-41.187 34.201-33.939 60.201 7.254 25.985 34.203 41.177 60.201 33.922 26-7.254 41.192-34.208 33.946-60.193zM764.966 324.646z"  horiz-adv-x="1024" />

    
    <glyph glyph-name="yitingzhi" unicode="&#59047;" d="M512 760.8c254.08 0 460.8-206.72 460.8-460.8s-206.72-460.8-460.8-460.8S51.2 45.92 51.2 300 257.92 760.8 512 760.8M512 812C229.248 812 0 582.752 0 300s229.248-512 512-512 512 229.248 512 512S794.752 812 512 812L512 812zM741.312 111.648c0-16-12.928-28.992-28.928-28.992L311.616 82.656c-16 0-28.928 12.992-28.928 28.992L282.688 512.352c0 16 12.928 28.864 28.928 28.864l400.768 0c16 0 28.928-12.864 28.928-28.864L741.312 111.648z"  horiz-adv-x="1024" />

    
    <glyph glyph-name="yulan" unicode="&#58900;" d="M512 58.368c-276.608 0-500.736 298.304-500.736 357.568 0 42.688 224.128 357.76 500.736 357.76 276.544 0 500.736-317.952 500.736-357.76C1012.672 356.416 788.48 58.368 512 58.368L512 58.368zM505.536 604.416c-133.76 0-289.792-63.168-289.792-196.928 0-133.76 156.032-182.656 289.792-182.656s292.352 48.896 292.352 182.656C797.888 541.248 639.296 604.416 505.536 604.416L505.536 604.416zM508.288 506.112c0-45.888 37.312-83.072 83.008-83.072 10.88 0 20.928 2.24 30.4 5.824 0.384-3.84 1.344-7.552 1.344-11.584 0-65.536-53.312-118.656-118.72-118.656-65.536 0-118.656 53.12-118.656 118.656 0 65.6 53.12 118.784 118.656 118.784 3.328 0 6.464-0.768 9.664-1.024C510.464 526.016 508.288 516.416 508.288 506.112L508.288 506.112z"  horiz-adv-x="1024" />

    
    <glyph glyph-name="bankuai" unicode="&#58945;" d="M884.4032-41.6l-106.3936 0c-31.9232 0-53.1968 21.248-53.1968 53.1968l0 106.3936c0 31.8976 21.2736 53.1968 53.1968 53.1968l0 106.3936-212.8128 0 0-106.3936c31.9232 0 53.1968-21.2992 53.1968-53.1968l0-106.3936c0-31.9488-21.2736-53.1968-53.1968-53.1968l-106.3936 0c-31.9232 0-53.1968 21.248-53.1968 53.1968l0 106.3936c0 31.8976 21.2736 53.1968 53.1968 53.1968l0 106.3936L245.9904 277.5808l0-106.3936c31.9232 0 53.1968-21.2992 53.1968-53.1968l0-106.3936c0-31.9488-21.2736-53.1968-53.1968-53.1968L139.5968-41.6c-31.9232 0-53.1968 21.248-53.1968 53.1968l0 106.3936c0 31.8976 21.2736 53.1968 53.1968 53.1968l0 106.3936 0 53.1968C139.5968 362.7008 160.8704 384 192.7936 384l266.0096 0 0 106.3936-53.1968 0c-31.9232 0-53.1968 21.248-53.1968 53.1968L352.4096 756.4032c0 31.8976 21.2736 53.1968 53.1968 53.1968l212.8128 0c31.9232 0 53.1968-21.2992 53.1968-53.1968l0-212.8128c0-31.9488-21.2736-53.1968-53.1968-53.1968l-53.1968 0L565.2224 384l266.0096 0c31.9232 0 53.1968-21.3248 53.1968-53.2224l0-53.1968 0-106.3936c31.9232 0 53.1968-21.2992 53.1968-53.1968l0-106.3936C937.6-20.352 916.3264-41.6 884.4032-41.6z"  horiz-adv-x="1024" />

    
    <glyph glyph-name="jiahao" unicode="&#59174;" d="M512-62.016611c-119.648434 0-232.1288 46.367961-316.736783 130.559656-84.640667 84.255342-131.263217 196.255772-131.263217 315.455235 0 119.168499 46.624271 231.199892 131.232254 315.424271 84.607983 84.191695 197.088348 130.559656 316.736783 130.559656s232.1288-46.367961 316.704099-130.559656c84.67163-84.224378 131.263217-196.255772 131.263217-315.391587 0.032684-119.199462-46.591587-231.232576-131.263217-315.455235C744.1288-15.615966 631.648434-62.016611 512-62.016611zM512 766.016611c-102.623626 0-199.071738-39.743475-271.583282-111.936783-72.480581-72.12794-112.416718-168.063432-112.416718-270.079828s39.903454-197.951888 112.384034-270.047144c72.511544-72.191587 168.959656-111.936783 271.583282-111.936783 102.592662 0 199.071738 39.743475 271.583282 111.936783 72.480581 72.160624 112.416718 168.063432 112.384034 270.079828 0 102.016396-39.903454 197.919204-112.384034 270.016181C711.071738 726.240452 614.592662 766.016611 512 766.016611zM736.00086 415.99914 544.00086 415.99914 544.00086 607.99914c0 17.664722-14.336138 32.00086-32.00086 32.00086s-32.00086-14.336138-32.00086-32.00086l0-192L288.00086 415.99914c-17.664722 0-32.00086-14.336138-32.00086-32.00086s14.336138-32.00086 32.00086-32.00086l192 0 0-192c0-17.695686 14.336138-32.00086 32.00086-32.00086s32.00086 14.303454 32.00086 32.00086L544.00258 351.99914l192 0c17.695686 0 32.00086 14.336138 32.00086 32.00086S753.696546 415.99914 736.00086 415.99914z"  horiz-adv-x="1024" />

    
    <glyph glyph-name="71shibai" unicode="&#58954;" d="M511.999488 830.709995C265.29162 830.709995 65.290517 630.708891 65.290517 384.001023c0-246.708891 200.001103-446.709995 446.708971-446.709995S958.70846 137.292132 958.70846 384.001023C958.70846 630.708891 758.707356 830.709995 511.999488 830.709995L511.999488 830.709995zM716.82855 258.145617c6.803963-6.819313 6.803963-17.856693 0-24.676006l-54.298673-54.29765c-6.819313-6.804986-17.85567-6.820336-24.676006 0L511.999488 305.026344 386.144082 179.171961c-6.819313-6.804986-17.871019-6.804986-24.676006 0l-54.29765 54.29765c-6.804986 6.804986-6.804986 17.856693 0 24.676006l125.869732 125.855406L307.170426 509.855406c-6.804986 6.819313-6.804986 17.871019 0 24.676006l54.29765 54.298673c6.820336 6.803963 17.856693 6.803963 24.676006 0l125.855406-125.870756 125.854383 125.870756c6.820336 6.803963 17.856693 6.803963 24.676006 0l54.298673-54.298673c6.803963-6.804986 6.803963-17.856693 0-24.676006L590.973144 384.001023 716.82855 258.145617 716.82855 258.145617zM716.82855 258.145617"  horiz-adv-x="1024" />

    
    <glyph glyph-name="yunxingzhong" unicode="&#58931;" d="M512-128c-281.6 0-512 230.4-512 512s230.4 512 512 512 512-230.4 512-512-230.4-512-512-512v0zM512 844.8c-256 0-460.8-204.8-460.8-460.8s204.8-460.8 460.8-460.8 460.8 204.8 460.8 460.8-204.8 460.8-460.8 460.8v0zM806.4 416c0 0-422.4 236.8-428.8 236.8-38.4 12.8-51.2-19.2-51.2-44.8v0c0 0 0-467.2 6.4-467.2 12.8-32 44.8-32 70.4-19.2v0c0 0 390.4 224 396.8 230.4 19.2 12.8 38.4 38.4 6.4 64v0z"  horiz-adv-x="1024" />

    
    <glyph glyph-name="peizhi" unicode="&#59096;" d="M1021.376 244.864c1.472-8.832 1.152-19.392-1.152-31.872-2.112-12.48-5.824-25.152-10.944-37.952-5.12-12.864-11.328-24.384-18.624-34.624-7.296-10.304-15.488-17.6-24.128-22.016-8.832-4.48-16.512-6.656-23.104-6.656-6.592 0-13.824 1.408-21.888 4.416-7.296 2.176-16.512 4.224-27.456 6.080-11.072 1.792-22.144 2.112-33.536 1.088-11.328-1.088-22.656-3.456-33.984-7.104-11.264-3.584-21.12-9.92-29.056-18.688-17.6-18.304-27.968-39.232-30.848-62.72-2.88-23.488 0.384-45.824 9.92-67.072 7.296-14.72 6.208-29.312-3.264-43.968-4.352-5.888-11.456-11.904-20.864-18.112-9.536-6.272-20.032-11.968-31.296-17.088-11.264-5.184-23.232-9.152-35.776-12.16-12.48-2.944-23.424-4.416-33.024-4.416-6.592 0-12.672 2.56-18.624 7.68-5.824 5.184-9.792 10.688-12.096 16.512h-1.152c-8.064 22.784-21.76 42.304-41.152 58.816-19.392 16.512-41.856 24.768-67.584 24.768-24.896 0-47.424-8.256-67.52-24.768-20.16-16.512-34.24-35.712-42.304-57.728-3.648-8.832-9.152-15.232-16.512-19.264-7.168-4.032-15.232-6.016-24.064-6.016-10.24 0-21.76 1.792-34.56 5.568-12.8 3.648-25.664 8.256-38.464 13.76-12.8 5.504-24.384 11.904-34.624 19.264-10.24 7.296-17.92 14.656-23.040 21.952-3.648 5.184-5.696 11.2-6.080 18.112-0.384 6.976 2.368 16.704 8.256 29.184 8.064 16.896 11.136 36.096 9.344 57.792-1.792 21.632-11.136 41.6-28.032 59.904-10.24 11.008-22.656 18.112-37.312 21.44-14.656 3.328-28.544 4.608-41.728 3.84-15.424-0.704-31.104-3.648-47.232-8.832-10.24-2.88-20.48-2.112-30.784 2.24-8.064 2.88-15.552 9.664-22.528 20.288-6.976 10.624-13.12 22.464-18.688 35.2-5.504 12.864-9.664 25.984-12.608 39.616-2.88 13.568-3.648 24.704-2.176 33.536 2.176 16.128 9.472 26.368 21.952 30.784 21.952 8.832 41.664 23.296 59.264 43.52 17.6 20.16 26.368 42.688 26.368 67.648 0 25.6-8.768 48-26.368 67.072-17.6 19.136-37.376 33.024-59.328 41.856-6.4 2.048-11.904 7.36-16.256 15.808-4.416 8.448-6.656 17.088-6.656 25.792 0 9.536 1.472 20.224 4.352 31.936 2.88 11.712 6.784 23.104 11.52 34.112 4.8 11.008 10.368 21.056 16.512 30.272 6.272 9.088 13.056 15.936 20.288 20.352 5.888 3.648 11.584 5.12 17.088 4.416 5.504-0.704 11.52-2.176 18.112-4.416 21.952-8.832 44.864-11.52 68.672-8.256 23.744 3.264 44.864 13.76 63.168 31.296 8.768 8.832 15.168 19.648 19.2 32.448 3.968 12.928 6.656 25.536 7.68 38.016 1.152 12.48 1.152 23.808 0 34.048-1.088 10.304-2.048 17.6-2.752 21.952-1.472 4.416-2.752 9.6-3.84 15.424-1.152 5.888-0.576 11.072 1.6 15.424 4.352 10.24 12.224 19.2 23.616 26.88 11.328 7.68 23.552 14.144 36.8 19.264 13.184 5.184 26.048 8.96 38.464 11.648 12.416 2.56 22.336 3.84 29.632 3.84 9.472 0 17.024-3.072 22.528-9.344 5.504-6.272 9.28-12.736 11.456-19.328 8.064-19.776 21.248-37.12 39.552-52.224 18.304-15.040 39.936-22.592 64.832-22.592 25.664 0 48.32 7.168 68.096 21.504 19.776 14.336 33.664 32.448 41.728 54.464 2.88 5.888 7.552 11.968 13.696 18.112 6.208 6.272 12.544 9.344 19.264 9.344 10.176 0 21.376-1.408 33.472-4.416 12.096-2.88 24-6.976 35.648-12.16 11.84-5.12 22.656-11.712 32.448-19.776 9.92-8.064 17.728-16.832 23.616-26.368 3.648-5.888 4.736-12.288 3.264-19.2-1.472-6.976-2.88-11.904-4.352-14.848-9.536-21.312-12.416-43.584-8.832-67.072 3.648-23.424 14.336-44.032 31.808-61.632 17.6-17.6 39.232-27.264 64.832-29.184 25.664-1.792 49.472 2.368 71.424 12.672 5.824 3.648 12.928 5.184 21.376 4.416 8.448-0.768 15.488-4.096 21.376-9.856 10.944-10.24 20.608-25.856 29.056-46.784 8.448-20.928 14.080-41.984 17.024-63.232 1.472-12.48-0.512-22.208-5.952-29.184-5.568-6.912-11.2-11.52-17.152-13.76-22.656-8.064-41.984-22.208-58.112-42.304-16.128-20.096-24.128-43.072-24.128-68.736 0-24.96 6.784-46.784 20.224-65.472 13.568-18.624 31.296-32.064 53.184-40.128 5.184-2.88 9.536-5.888 13.184-8.768 8.256-6.592 13.76-15.040 16.64-25.28v0 0 0zM510.72 145.856c32.896 0 64.128 6.272 93.312 18.688 29.312 12.48 54.784 29.696 76.416 51.648 21.632 22.080 38.656 47.488 51.072 76.48 12.416 28.992 18.624 59.968 18.624 92.928 0 33.024-6.208 64-18.624 92.928-12.416 28.992-29.44 54.336-51.072 75.904-21.632 21.632-47.040 38.72-76.416 51.136-29.184 12.48-60.416 18.752-93.312 18.752-32.896 0-63.936-6.272-92.864-18.688-28.8-12.48-54.144-29.568-75.648-51.2-21.568-21.568-38.656-46.976-51.072-75.904-12.48-28.928-18.688-59.968-18.688-92.928s6.272-63.936 18.688-92.928c12.416-28.928 29.504-54.4 51.072-76.48 21.568-22.016 46.912-39.168 75.776-51.648 28.928-12.416 59.84-18.688 92.736-18.688v0 0 0zM510.72 145.856z"  horiz-adv-x="1024" />

    
    <glyph glyph-name="weibiaoti5" unicode="&#58903;" d="M450.516401 729.6c13.6-36 52-60.8 92-62.4 11.2 0 12.8 0 23.2 0l8 0 369.6 0c33.6 0 61.6-28.8 61.6-62.4l0-248 0-124 0-186.4c0-33.6-28-62.4-61.6-62.4L80.916401-16c-33.6 0-61.6 28.8-61.6 62.4L19.316401 729.6c0 33.6 28 62.4 61.6 62.4l308 0M388.916401 791.2 388.916401 791.2c29.6-1.6 53.6-37.6 61.6-62.4"  horiz-adv-x="1025" />

    
    <glyph glyph-name="weibiaoti15" unicode="&#58913;" d="M916 324l-576 0c-35.2 0-64 28.8-64 64 0 35.2 28.8 64 64 64l576 0c35.2 0 64-28.8 64-64C980 352.8 951.2 324 916 324zM916 652l-576 0c-35.2 0-64 28.8-64 64s28.8 64 64 64l576 0c35.2 0 64-28.8 64-64S951.2 652 916 652zM116-4c-35.2 0-64 28.8-64 64 0 35.2 28.8 64 64 64 35.2 0 64-28.8 64-64C180 24.8 151.2-4 116-4zM116 324c-35.2 0-64 28.8-64 64 0 35.2 28.8 64 64 64 35.2 0 64-28.8 64-64C180 352.8 151.2 324 116 324zM116 652c-35.2 0-64 28.8-64 64s28.8 64 64 64c35.2 0 64-28.8 64-64S151.2 652 116 652zM340 124l576 0c35.2 0 64-28.8 64-64 0-35.2-28.8-64-64-64l-576 0c-35.2 0-64 28.8-64 64C276 95.2 304.8 124 340 124z"  horiz-adv-x="1024" />

    
    <glyph glyph-name="daoru" unicode="&#58910;" d="M463.122803 604.836641l-89.617064 89.61297c-18.86772 14.149255-47.166229 14.149255-66.032926-4.713348-9.434883-9.434883-14.149255-23.585161-14.149255-37.734416 4.714372-117.915573 4.714372-358.466208 4.714372-358.466208s240.549611 0 358.466208-4.717442c14.149255 0 28.29851 4.717442 37.734416 14.149255 18.866696 18.86772 18.866696 47.169299 4.717442 61.319577l-89.617064 89.617064c75.464739 70.747297 169.799244 89.613994 297.146631 61.314461l-14.149255 14.150278C783.850501 637.853615 599.902002 741.61584 463.122803 604.836641L463.122803 604.836641zM194.270589 62.421934l584.866564 0c23.581068 0 42.447764 18.866696 42.447764 42.447764L821.584917 463.335906c-23.581068 4.717442-56.597019 4.717442-84.899622-14.149255l0-61.319577c0 0 23.584138-14.149255 18.866696-66.031902 0-37.730323-18.866696-66.032926-18.866696-66.032926l0-117.916597L236.721423 137.88565 236.721423 732.184027l-42.451858 0c-23.581068 0-42.447764-18.866696-42.447764-42.447764l0-584.866564C151.821801 81.28863 170.688497 62.421934 194.270589 62.421934L194.270589 62.421934z"  horiz-adv-x="1024" />

    
    <glyph glyph-name="zhuye" unicode="&#58933;" d="M618.775862 41.276335c0 35.763528 0.112564 83.739193-0.031722 117.392664-0.127913 27.329439-5.867638 33.224706-32.721239 33.341363-39.933501 0.163729-79.865979 0.147356-119.79948 0.007163-27.369348-0.095167-32.573883-4.948709-33.008788-33.016974-0.528026-33.605376-0.127913-81.556481-0.127913-116.696816-7.55507-0.871857-12.839423-1.987261-18.131963-2.010797-36.19127-0.152473-72.387657-0.452301-108.574834 0.023536-42.947138 0.563842-53.088102 11.304464-52.78418 53.383838 0.268106 38.038338-0.327458 199.909006 0.715291 237.926878 0.211824 7.574512 4.185322 17.064654 9.6815 22.177092 72.167646 67.110467 144.806014 133.713374 217.58048 200.167902 29.03222 26.5067 63.293535 26.821879 92.369757 0.039909 72.954569-67.186192 145.493675-134.823662 217.712487-202.793706 5.080715-4.780887 8.618285-13.719466 8.765641-20.805862 0.188288-9.190313 0.98749-172.98889 0.288572-243.611344-0.264013-26.41358-13.287631-44.094264-37.71088-45.0091C715.775057 40.024831 668.443052 41.276335 618.775862 41.276335L618.775862 41.276335zM519.040347 761.088334c35.567054 0.071631 54.090942-11.728112 70.727855-27.841092 64.0999-62.062498 128.316457-124.020618 192.453197-186.046277 29.604248-28.632107 59.135842-57.345056 88.679715-86.041632 3.130294-3.045359 6.240121-6.135744 9.129938-9.4093 16.441461-18.62315 18.651802-38.610366 6.087649-54.259788-13.246699-16.492626-39.792285-20.35356-59.555397-8.233522-5.252631 3.225461-9.992585 7.438413-14.502295 11.695367-73.009827 69.01791-146.012492 138.03889-218.874963 207.215412-53.939493 51.209312-74.593905 51.625798-129.080867 1.003863-72.682369-67.530023-144.785547-135.688355-218.039945-202.591091-10.333346-9.441023-25.131377-15.928784-38.941917-19.134803-18.127869-4.204765-33.097816 5.004991-41.544185 21.713534-8.482185 16.776082-5.108345 32.985252 6.852058 46.944172 6.863315 8.014534 14.957667 15.001669 22.695908 22.236444 89.803305 83.959204 179.734524 167.762865 269.385357 251.885797C483.315704 747.865171 503.802294 760.85195 519.040347 761.088334L519.040347 761.088334z"  horiz-adv-x="1024" />

    
    <glyph glyph-name="wenjianjiafolders3" unicode="&#59193;" d="M908.12416 539.61728l-1.55648 0 0 71.77216c0 24.77056-20.15232 44.92288-44.93312 44.92288L469.25824 656.31232l-29.11232 76.41088c-3.04128 7.936-10.63936 13.18912-19.13856 13.18912L261.31456 745.91232c-5.45792 0-10.68032-2.17088-14.53056-6.0416-3.84-3.87072-5.9904-9.10336-5.94944-14.56128l-0.18432-107.39712 40.96 0 0.03072 87.04 125.24544 0 29.12256-76.41088c3.0208-7.936 10.63936-13.18912 19.13856-13.18912l406.4768 0c2.19136 0 3.97312-1.78176 3.97312-3.96288l0-71.77216L750.97088 539.61728c-2.51904 0-4.9152-0.41984-7.24992-1.024l3.92192-10.2912-1.20832 0c24.7808 0 44.93312-20.15232 44.93312-44.92288l0-71.77216 1.55648 0c16.10752 0 29.16352-13.04576 29.16352-29.16352l0-201.64608 39.54688 0c0.44032 0 0.86016 0.12288 1.29024 0.13312l45.19936 0c16.10752 0 29.16352 13.04576 29.16352 29.16352L937.28768 510.464C937.27744 526.57152 924.23168 539.61728 908.12416 539.61728zM754.52416 380.89728l-1.55648 0 0 71.77216c0 24.77056-20.15232 44.92288-44.93312 44.92288L315.65824 497.59232l-29.11232 76.41088c-3.04128 7.936-10.63936 13.18912-19.13856 13.18912l-159.4368 0c-5.45792 0-10.68032-2.17088-14.53056-6.0416-3.84-3.87072-5.9904-9.10336-5.94944-14.56128L87.3472 452.66944l0-385.65888c0-24.77056 20.16256-44.92288 44.92288-44.92288l575.76448 0c0.44032 0 0.86016 0.12288 1.29024 0.13312l45.19936 0c16.10752 0 29.16352 13.04576 29.16352 29.16352L783.68768 351.744C783.67744 367.85152 770.63168 380.89728 754.52416 380.89728zM711.99744 380.89728l-508.2112 0c-16.10752 0-29.16352-13.04576-29.16352-29.16352l0-288.68608-42.36288 0c-2.18112 0-3.96288 1.78176-3.96288 3.96288L128.29696 452.79232l-0.26624 93.44 125.24544 0 29.12256-76.41088c3.0208-7.936 10.63936-13.18912 19.13856-13.18912l406.4768 0c2.19136 0 3.97312-1.78176 3.97312-3.96288L711.9872 380.89728z"  horiz-adv-x="1024" />

    
    <glyph glyph-name="wenjianjiafolders4" unicode="&#59192;" d="M49.70496 110.14144l216.8832 0L266.58816 696.09472 49.70496 696.09472 49.70496 110.14144zM158.13632 219.52512c-27.31008 0-49.46944 22.13888-49.46944 49.4592 0 27.33056 22.14912 49.4592 49.46944 49.4592s49.46944-22.12864 49.46944-49.4592C207.60576 241.67424 185.45664 219.52512 158.13632 219.52512zM97.90464 639.00672 212.6848 639.00672l0-211.47648L97.90464 427.53024 97.90464 639.00672zM97.90464 409.78432 212.6848 409.78432l0-21.88288L97.90464 387.90144 97.90464 409.78432zM113.12128 621.27104l83.712 0 0-35.52256-83.712 0L113.12128 621.27104zM302.72512 110.14144l216.8832 0L519.60832 696.09472l-216.8832 0L302.72512 110.14144zM411.16672 219.52512c-27.31008 0-49.46944 22.13888-49.46944 49.4592 0 27.33056 22.14912 49.4592 49.46944 49.4592 27.32032 0 49.4592-22.12864 49.4592-49.4592C460.62592 241.67424 438.48704 219.52512 411.16672 219.52512zM350.9248 639.00672l114.78016 0 0-211.47648L350.9248 427.53024 350.9248 639.00672zM350.9248 409.78432l114.78016 0 0-21.88288L350.9248 387.90144 350.9248 409.78432zM366.14144 621.27104l83.712 0 0-35.52256-83.712 0L366.14144 621.27104zM747.35616 715.23328l-199.95648-83.99872L774.3488 91.01312l199.95648 83.98848L747.35616 715.23328zM613.94944 597.27872l105.80992 44.45184 81.92-194.97984-105.82016-44.46208L613.94944 597.27872zM702.73024 385.91488l105.82016 44.45184 8.47872-20.1728-105.82016-44.45184L702.73024 385.91488zM831.95904 233.86112c-25.18016-10.58816-54.17984 1.25952-64.75776 26.44992-10.57792 25.18016 1.25952 54.1696 26.44992 64.74752 25.18016 10.58816 54.17984-1.24928 64.75776-26.44992C868.97664 273.43872 857.1392 244.43904 831.95904 233.86112zM725.78048 586.47552l-77.16864-32.4096-13.76256 32.73728 77.17888 32.4096L725.78048 586.47552z"  horiz-adv-x="1024" />

    
    <glyph glyph-name="wenjianjiafolder81" unicode="&#59205;" d="M782.16192 591.44192l0-3.2256-40.96 0 0 3.2256c0 2.18112-1.78176 3.96288-3.97312 3.96288L330.752 595.4048c-8.4992 0-16.11776 5.25312-19.13856 13.18912l-29.12256 76.41088L157.4912 685.0048l0.02048-93.44 0-385.78176c0-2.18112 1.78176-3.96288 3.96288-3.96288l42.36288 0L203.83744 490.51648c0 16.10752 13.04576 29.16352 29.16352 29.16352l256.02048 0 0-358.8096L161.47456 160.8704c-24.76032 0-44.92288 20.15232-44.92288 44.92288L116.55168 591.44192l0.12288 113.92c-0.04096 5.45792 2.10944 10.69056 5.94944 14.56128 3.85024 3.87072 9.07264 6.0416 14.53056 6.0416l159.45728 0c8.4992 0 16.09728-5.25312 19.13856-13.18912l29.11232-76.41088 392.36608 0C762.0096 636.3648 782.16192 616.21248 782.16192 591.44192zM907.08992 464.15872l0-390.18496c0-17.6128-14.32576-31.93856-31.93856-31.93856L554.00448 42.0352c-17.6128 0-31.93856 14.32576-31.93856 31.93856L522.06592 530.9952c0 17.6128 14.32576 31.93856 31.93856 31.93856l262.17472 0L907.08992 464.15872zM823.7056 471.83872l39.85408 0-39.85408 43.30496L823.7056 471.83872zM880.26112 445.00992l-69.95968 0c-7.39328 0-13.4144 6.01088-13.4144 13.4144l0 77.68064L554.00448 536.10496c-2.816 0-5.12-2.29376-5.12-5.10976l0-457.02144c0-2.816 2.29376-5.10976 5.12-5.10976l321.13664 0c2.816 0 5.12 2.29376 5.12 5.10976L880.26112 445.00992zM574.55616 398.21312c0-9.10336 7.40352-16.50688 16.49664-16.50688l233.13408 0c9.10336 0 16.49664 7.41376 16.49664 16.50688 0 9.09312-7.40352 16.49664-16.49664 16.49664L591.06304 414.70976C581.96992 414.72 574.55616 407.30624 574.55616 398.21312zM824.19712 318.976 591.06304 318.976c-9.09312 0-16.49664-7.39328-16.49664-16.4864s7.40352-16.4864 16.49664-16.4864l233.13408 0c9.10336 0 16.49664 7.39328 16.49664 16.4864S833.29024 318.976 824.19712 318.976zM824.19712 224.80896 591.06304 224.80896c-9.09312 0-16.49664-7.40352-16.49664-16.49664 0-9.09312 7.40352-16.49664 16.49664-16.49664l233.13408 0c9.10336 0 16.49664 7.41376 16.49664 16.49664C840.69376 217.40544 833.29024 224.80896 824.19712 224.80896z"  horiz-adv-x="1024" />

    
    <glyph glyph-name="jianhao" unicode="&#58983;" d="M512 800C283.202 800 96 612.798 96 384c0-228.796 187.202-416 416-416 228.796 0 416 187.204 416 416C928 612.798 740.798 800 512 800zM512 51.202c-183.038 0-332.798 149.764-332.798 332.798 0 183.034 149.762 332.8 332.798 332.8C695.036 716.8 844.8 567.036 844.8 384 844.8 200.964 695.036 51.202 512 51.202zM816.414 343.414 207.586 343.414l0 81.174 608.828 0L816.414 343.414z"  horiz-adv-x="1024" />

    
    <glyph glyph-name="quanpingzuidahua" unicode="&#59270;" d="M64 730.368 64 480C64 462.336 78.336 448 96 448S128 462.336 128 480L128 660.672l203.456-203.52c11.968-11.968 31.36-11.968 43.392 0 11.968 12.032 11.968 31.424 0 43.392L171.328 704 352 704C369.664 704 384 718.336 384 736S369.664 768 352 768L101.632 768C78.272 768 64 755.968 64 730.368zM860.352 768 609.984 768c-17.664 0-32-14.336-32-32S592.32 704 609.984 704l180.672 0-203.52-203.456c-11.968-11.968-11.968-31.36 0-43.392 12.032-11.968 31.424-11.968 43.392 0l203.456 203.52L833.984 480c0-17.664 14.336-32 32-32s32 14.336 32 32L897.984 730.368C897.984 755.968 883.776 768 860.352 768zM101.632-64 352-64C369.664-64 384-49.664 384-32S369.664 0 352 0L171.328 0l203.52 203.456c11.968 11.968 11.968 31.36 0 43.392-12.032 11.968-31.424 11.968-43.392 0L128 43.328 128 224C128 241.664 113.664 256 96 256S64 241.664 64 224l0-250.368C64-51.968 78.272-64 101.632-64zM897.984-26.368 897.984 224c0 17.664-14.336 32-32 32s-32-14.336-32-32l0-180.672-203.456 203.52c-11.968 11.968-31.36 11.968-43.392 0-11.968-12.032-11.968-31.424 0-43.392L790.656 0 609.984 0c-17.664 0-32-14.336-32-32s14.336-32 32-32l250.368 0C883.776-64 897.984-51.968 897.984-26.368z"  horiz-adv-x="1024" />

    
    <glyph glyph-name="leimupinleifenleileibie2" unicode="&#59384;" d="M320 832 192 832C121.6 832 64 774.4 64 704l0-128c0-70.4 57.6-128 128-128l128 0c70.4 0 128 57.6 128 128L448 704C448 774.4 390.4 832 320 832zM768 832l-128 0C569.6 832 512 774.4 512 704l0-128c0-70.4 57.6-128 128-128l128 0c70.4 0 128 57.6 128 128L896 704C896 774.4 838.4 832 768 832zM320 384 192 384c-70.4 0-128-57.6-128-128l0-128c0-70.4 57.6-128 128-128l128 0c70.4 0 128 57.6 128 128l0 128C448 326.4 390.4 384 320 384zM768 384l-128 0c-70.4 0-128-57.6-128-128l0-128c0-70.4 57.6-128 128-128l128 0c70.4 0 128 57.6 128 128l0 128C896 326.4 838.4 384 768 384z"  horiz-adv-x="1024" />

    
    <glyph glyph-name="riliriqi2" unicode="&#59400;" d="M704 736C704 753.92 689.92 768 672 768 654.08 768 640 753.92 640 736L640 704l64 0L704 736zM384 736C384 753.92 369.92 768 352 768S320 753.92 320 736L320 704l64 0L384 736zM832 704l-128 0 0-96C704 590.08 689.92 576 672 576 654.08 576 640 590.08 640 608L640 704 384 704l0-96C384 590.08 369.92 576 352 576S320 590.08 320 608L320 704 192 704C121.6 704 64 646.4 64 576l0-512c0-70.4 57.6-128 128-128l640 0c70.4 0 128 57.6 128 128L960 576C960 646.4 902.4 704 832 704zM352 128l-64 0C270.08 128 256 142.08 256 160 256 177.92 270.08 192 288 192l64 0C369.92 192 384 177.92 384 160 384 142.08 369.92 128 352 128zM352 256l-64 0C270.08 256 256 270.08 256 288S270.08 320 288 320l64 0C369.92 320 384 305.92 384 288S369.92 256 352 256zM544 128l-64 0C462.08 128 448 142.08 448 160 448 177.92 462.08 192 480 192l64 0C561.92 192 576 177.92 576 160 576 142.08 561.92 128 544 128zM544 256l-64 0C462.08 256 448 270.08 448 288S462.08 320 480 320l64 0C561.92 320 576 305.92 576 288S561.92 256 544 256zM736 128l-64 0c-17.92 0-32 14.08-32 32 0 17.92 14.08 32 32 32l64 0c17.92 0 32-14.08 32-32C768 142.08 753.92 128 736 128zM736 256l-64 0C654.08 256 640 270.08 640 288S654.08 320 672 320l64 0C753.92 320 768 305.92 768 288S753.92 256 736 256zM864 448l-704 0C142.08 448 128 462.08 128 480 128 497.92 142.08 512 160 512l704 0C881.92 512 896 497.92 896 480 896 462.08 881.92 448 864 448z"  horiz-adv-x="1024" />

    
    <glyph glyph-name="fabu" unicode="&#58930;" d="M1024 896 384 192 0 320 1024 896ZM1024 896 1024 0 483.414063 163.148435 1024 896ZM384 155.511718 364.578125 161.699219 512-128 606.945313 90.5 476.078125 128 496.279297-64 384 155.511718Z"  horiz-adv-x="1024" />

    
    <glyph glyph-name="zhuti" unicode="&#58953;" d="M0 767.884602C0 838.640783 57.372907 896 128.115398 896L310.741745 896C381.497926 896 438.857143 838.627093 438.857143 767.884602L438.857143 585.258255C438.857143 514.502074 381.484236 457.142857 310.741745 457.142857L128.115398 457.142857C57.359217 457.142857 0 514.515764 0 585.258255L0 767.884602ZM0 182.741747C0 253.497926 57.372907 310.857143 128.115398 310.857143L310.741745 310.857143C381.497926 310.857143 438.857143 253.484237 438.857143 182.741747L438.857143 0.115398C438.857143-70.640781 381.484236-128 310.741745-128L128.115398-128C57.359217-128 0-70.627091 0 0.115398L0 182.741747ZM585.142857 767.884602C585.142857 838.640783 642.515763 896 713.258253 896L895.884602 896C966.640781 896 1024 838.627093 1024 767.884602L1024 585.258255C1024 514.502074 966.627091 457.142857 895.884602 457.142857L713.258253 457.142857C642.502074 457.142857 585.142857 514.515764 585.142857 585.258255L585.142857 767.884602ZM585.142857 182.741747C585.142857 253.497926 642.515763 310.857143 713.258253 310.857143L895.884602 310.857143C966.640781 310.857143 1024 253.484237 1024 182.741747L1024 0.115398C1024-70.640781 966.627091-128 895.884602-128L713.258253-128C642.502074-128 585.142857-70.627091 585.142857 0.115398L585.142857 182.741747Z"  horiz-adv-x="1024" />

    
    <glyph glyph-name="right-arrow" unicode="&#58919;" d="M555.853 834l406.147-450-406.147-450zM62 603.375h624.015v-438.75h-624.015v438.75z"  horiz-adv-x="1024" />

    
    <glyph glyph-name="banshou" unicode="&#58972;" d="M941.98866 693.214481c33.767058-83.243913 17.682731-182.610014-48.573275-250.288416-72.960709-74.535577-183.230138-86.150102-268.901333-36.776601l-61.929468-69.124334 44.180222-45.316092 26.403347 26.985608c13.512758 13.796214 35.396161 13.796214 48.907896 0L896.310318 97.6339c13.499455-13.796214 13.499455-36.145222 0-49.941436l-97.80249-99.908454c-13.499455-13.796214-35.382858-13.796214-48.895617 0L535.378965 168.844755c-13.499455 13.782911-13.499455 36.144198 0 49.942459l24.118304 24.633027-42.125423 43.147706-296.296263-330.671165c-27.005051-27.594475-70.790276-27.594475-97.795327 0l-24.447808 24.982998c-27.01119 27.592428-27.01119 72.313979 0 99.909477l337.51606 288.774963L212.168726 599.170594l-70.770833 0.026606L59.50372 733.776292l65.966411 67.483974 134.729517-84.212984 0.916882-70.830185 226.750327-232.56373 65.983807 56.45171c-64.48671 89.820702-57.768705 216.301348 21.727861 297.504788 65.933665 67.354014 162.638147 84.070744 243.892753 50.210565L674.171008 671.447734 796.401864 546.568563 941.98866 693.214481zM180.004165 45.574221c-13.513782 13.795191-35.403325 13.795191-48.90892 0-13.491269-13.797237-13.491269-36.171828 0-49.968042 13.505595-13.795191 35.395138-13.795191 48.90892 0C193.503621 9.402393 193.503621 31.776983 180.004165 45.574221z"  horiz-adv-x="1024" />

    
    <glyph glyph-name="sanjiaodown" unicode="&#59061;" d="M511.997952 140.025732l365.02634 487.950584L146.975708 627.976316 511.997952 140.025732"  horiz-adv-x="1024" />

    
    <glyph glyph-name="sanjiaoright" unicode="&#59063;" d="M755.974268 384 268.025732 749.024292l0-730.048584L755.974268 384"  horiz-adv-x="1024" />

    
    <glyph glyph-name="stoptingzhi" unicode="&#58932;" d="M0 896l1024 0 0-1024L0-128 0 896z"  horiz-adv-x="1024" />

    
    <glyph glyph-name="shangchuanshibai" unicode="&#58924;" d="M820.096 215.5904 571.4752 636.8704c-26.56 44.3904-92.96 44.3904-119.5264 0l-247.8784-421.28c-26.56-44.3904-8.2624-117.7472 44.864-117.7472l525.5552 0C827.6032 97.8368 846.656 171.2 820.096 215.5904zM516.1088 511.2576c15.6672 0 25.344-18.8992 23.9616-35.9488l-17.5104-198.1632-13.824 0-15.6672 198.1632C492.1408 491.904 501.3568 511.2576 516.1088 511.2576zM517.4848 196.9664c-14.2848 0-25.8048 11.52-25.8048 25.8048 0 14.2784 11.52 25.8048 25.8048 25.8048s25.8048-11.5264 25.8048-25.8048C543.296 208.4864 531.776 196.9664 517.4848 196.9664z"  horiz-adv-x="1024" />

    
    <glyph glyph-name="yidongyunkongzhitaiicon11" unicode="&#59202;" d="M530 414.75l75-75c10 12.5 22.5 23.75 36.25 33.75l-82.5 82.5C551.25 439.75 541.25 426 530 414.75zM828.75 576l-81.25-181.25c16.25-2.5 32.5-8.75 46.25-16.25l77.5 175C856.25 557.25 841.25 566 828.75 576zM721.25 149.75c55 0 98.75 43.75 98.75 98.75 0 55-43.75 98.75-98.75 98.75-55 0-98.75-43.75-98.75-98.75C622.5 193.5 667.5 149.75 721.25 149.75zM721.25 297.25c27.5 0 48.75-22.5 48.75-50 0-27.5-22.5-50-48.75-50-27.5 0-48.75 22.5-48.75 50C672.5 276 695 297.25 721.25 297.25zM918.75 593.5c55 0 98.75 43.75 98.75 98.75 0 55-43.75 98.75-98.75 98.75s-98.75-43.75-98.75-98.75C820 638.5 865 593.5 918.75 593.5zM918.75 742.25c27.5 0 48.75-22.5 48.75-50 0-27.5-22.5-50-48.75-50-27.5 0-48.75 22.5-48.75 50C870 719.75 891.25 742.25 918.75 742.25zM301.25 439.75l-105-125c12.5-10 25-22.5 33.75-37.5l105 125C321.25 413.5 310 426 301.25 439.75zM203.75 198.5c0 55-43.75 98.75-98.75 98.75-55 0-98.75-43.75-98.75-98.75 0-55 43.75-98.75 98.75-98.75C160 99.75 203.75 143.5 203.75 198.5zM56.25 198.5c0 27.5 22.5 50 48.75 50s48.75-22.5 48.75-50c0-27.5-22.5-50-48.75-50S56.25 171 56.25 198.5zM943.75 74.75c0-27.5-22.5-50-48.75-50L203.75 24.75c-22.5 0-40 13.75-47.5 33.75-16.25-6.25-33.75-8.75-51.25-8.75 0-41.25 33.75-73.75 73.75-73.75l740 0c41.25 0 73.75 33.75 73.75 73.75l0 513.75c-15-8.75-31.25-15-48.75-17.5L943.75 74.75zM155 668.5c0 27.5 22.5 50 48.75 50l568.75 0c2.5 17.5 8.75 35 17.5 50l-611.25 0c-41.25 0-73.75-33.75-73.75-73.75l0-346.25c17.5 0 33.75-2.5 48.75-8.75L153.75 668.5zM426.25 421c55 0 98.75 43.75 98.75 98.75 0 55-43.75 98.75-98.75 98.75-55 0-98.75-43.75-98.75-98.75C327.5 464.75 371.25 421 426.25 421zM426.25 569.75c27.5 0 48.75-22.5 48.75-50 0-27.5-22.5-50-48.75-50-27.5 0-48.75 22.5-48.75 50C376.25 547.25 398.75 569.75 426.25 569.75z"  horiz-adv-x="1024" />

    
    <glyph glyph-name="yidongyunkongzhitaiicon42" unicode="&#59215;" d="M983.716 244.75l42.5 42.5L847.466 464.75 668.716 287.25l42.5-42.5 106.25 106.25 0-373.75L876.216-22.75 876.216 351 983.716 244.75zM533.716 102.25 533.716 474.75l-60 0 0-373.75-106.25 106.25L326.216 166l177.5-177.5 178.75 178.75L639.966 208.5 533.716 102.25zM297.466 61 238.716 61c-98.75 0-178.75 80-178.75 178.75S139.966 418.5 238.716 418.5c1.25 0 2.5 0 2.5 0l28.75 0c1.25 0 11.25-1.25 21.25 10 10 11.25 6.25 21.25 6.25 33.75 0 148.75 121.25 270 268.75 270 70 0 133.75-26.25 181.25-70 5-5 3.75-5 10-10 6.25-8.75 15-13.75 26.25-13.75 16.25 0 30 13.75 30 30 0 10-5 18.75-12.5 26.25-5 5-3.75 3.75-10 8.75-58.75 56.25-137.5 90-225 90-176.25 0-320-138.75-328.75-312.5-131.25 0-237.5-106.25-237.5-237.5s106.25-237.5 237.5-237.5l57.5 0c16.25 0 30 13.75 30 30C326.216 48.5 313.716 61 297.466 61L297.466 61z"  horiz-adv-x="1027" />

    
    <glyph glyph-name="youjiantou" unicode="&#59007;" d="M44.42112 317.87008l685.25568 0-259.18464-248.69376 183.22432 0 324.00896 310.79424-324.00896 310.8352L470.49728 690.80576l259.18464-248.66304L44.42112 442.14272 44.42112 317.87008z"  horiz-adv-x="1024" />

    
    <glyph glyph-name="biaoqian" unicode="&#58882;" d="M788.48 266.581333c0 17.066667-5.802667 31.744-17.749333 44.714667L421.205333 660.138667c-12.288 12.288-29.354667 22.869333-49.834667 31.744-21.162667 8.874667-39.936 12.970667-57.002667 12.970667L110.933333 704.853333c-17.066667 0-31.744-6.485333-44.032-18.773333-12.288-12.288-18.773333-26.965333-18.773333-44.032l0-202.752c0-17.066667 4.096-36.522667 12.970667-57.002667 8.874667-21.162667 18.773333-37.546667 31.744-49.834667l349.525333-349.525333c12.288-12.288 26.965333-17.749333 44.032-17.749333 17.066667 0 31.744 5.802667 44.714667 17.749333l239.616 239.616C781.994667 234.837333 788.48 249.514667 788.48 266.581333L788.48 266.581333 788.48 266.581333zM248.490667 503.808c-12.288-12.288-26.965333-18.090667-44.032-18.090667-17.066667 0-31.744 5.802667-44.032 18.090667-12.288 12.288-18.090667 26.965333-18.090667 44.032 0 17.066667 5.802667 31.744 18.090667 44.032 12.288 12.288 26.965333 18.090667 44.032 18.090667 17.066667 0 31.744-5.802667 44.032-18.090667C260.778667 579.584 266.24 564.906667 266.24 547.84 267.264 530.432 260.778667 516.096 248.490667 503.808L248.490667 503.808 248.490667 503.808zM958.122667 311.637333 608.597333 660.138667c-12.288 12.288-29.354667 22.869333-49.834667 31.744C537.6 700.757333 518.826667 704.853333 501.76 704.853333l-109.909333 0c17.066667 0 36.522667-4.096 57.002667-12.970667 21.162667-8.874667 37.546667-18.773333 49.834667-31.744l349.525333-348.501333c12.288-12.970667 18.090667-27.648 18.090667-44.714667s-5.802667-31.744-18.090667-44.032l-229.034667-229.717333c9.898667-9.898667 18.773333-17.066667 25.941333-21.845333 7.168-4.778667 17.066667-6.485333 28.672-6.485333 17.066667 0 31.744 5.802667 44.714667 18.090667l239.616 240.298667c12.288 12.288 17.749333 26.965333 17.749333 44.032S970.069333 298.325333 958.122667 311.637333L958.122667 311.637333 958.122667 311.637333zM958.122667 311.637333"  horiz-adv-x="1024" />

    
    <glyph glyph-name="rili" unicode="&#58906;" d="M281.25 691c-21.25 0-38.75 17.5-38.75 38.75L242.5 846c0 21.25 17.5 38.75 38.75 38.75l0 0c21.25 0 38.75-17.5 38.75-38.75l0-115C320 708.5 302.5 691 281.25 691L281.25 691 281.25 691zM896.25 807.25l-76.25 0 0-77.5c0-42.5-35-77.5-77.5-77.5-42.5 0-77.5 35-77.5 77.5L665 807.25 358.75 807.25l0-77.5c0-42.5-35-77.5-77.5-77.5-42.5 0-77.5 35-77.5 77.5L203.75 807.25l-77.5 0C63.75 807.25 12.5 754.75 12.5 691l0-692.5c0-63.75 51.25-115 115-115l768.75 0c63.75 0 115 51.25 115 115l0 692.5C1011.25 754.75 960 807.25 896.25 807.25L896.25 807.25zM877.5-39 146.25-39c-35 0-63.75 28.75-63.75 63.75L82.5 618.5l858.75 0 0-593.75C941.25-10.25 912.5-39 877.5-39zM742.5 691c-21.25 0-38.75 17.5-38.75 38.75l0 115c0 21.25 17.5 38.75 38.75 38.75l0 0c21.25 0 38.75-17.5 38.75-38.75l0-115C781.25 708.5 763.75 691 742.5 691L742.5 691 742.5 691zM838.75 539.75 185 539.75c-2.5 0-5-2.5-5-6.25L180 58.5c0-3.75 2.5-6.25 5-6.25l653.75 0c2.5 0 5 2.5 5 6.25L843.75 533.5C843.75 537.25 841.25 539.75 838.75 539.75L838.75 539.75zM507.5 289.75l0-226.25-163.75 0L343.75 289.75 507.5 289.75 507.5 289.75zM343.75 302.25 343.75 528.5l163.75 0 0-226.25L343.75 302.25 343.75 302.25zM516.25 289.75l163.75 0 0-226.25-163.75 0L516.25 289.75 516.25 289.75zM516.25 302.25 516.25 528.5l163.75 0 0-226.25L516.25 302.25 516.25 302.25zM190 528.5l143.75 0 0-226.25L190 302.25 190 528.5 190 528.5zM190 289.75l143.75 0 0-226.25-143.75 0L190 289.75 190 289.75zM833.75 64.75 690 64.75 690 289.75l143.75 0L833.75 64.75 833.75 64.75zM833.75 302.25 690 302.25 690 528.5l143.75 0L833.75 302.25 833.75 302.25z"  horiz-adv-x="1024" />

    
    <glyph glyph-name="edit" unicode="&#58909;" d="M678.854949 858.074075 151.913033 858.074075C67.776878 858.074075 0 790.060281 0 706.161013L0 23.913062C0-60.223137 68.013787-128 151.913033-128L834.161006-128C918.297234-128 986.074039-59.986205 986.074039 23.913062L986.074039 543.123046 910.22219 467.271197 910.22219 23.913062C910.22219-18.194593 876.305262-52.148151 834.161006-52.148151L151.913033-52.148151C109.805422-52.148151 75.851849-18.231172 75.851849 23.913062L75.851849 706.161013C75.851849 748.268668 109.76885 782.222219 151.913033 782.222219L603.003099 782.222219 678.854949 858.074075ZM320.679497 197.145066 550.775881 262.471958 386.423442 425.819414 320.679497 197.145066ZM935.236535 644.587381 770.882048 807.936965 409.297774 448.578077 573.650213 285.244409 935.236535 644.587381ZM1011.623351 781.801538 908.897353 883.888662C891.877742 900.806437 863.36629 899.885305 845.211136 881.847962L795.896832 832.853058 960.252416 669.504541 1009.563575 718.514293C1027.718729 736.552704 1028.639817 764.881642 1011.623351 781.801538Z"  horiz-adv-x="1024" />

    
    <glyph glyph-name="tuichu" unicode="&#58929;" d="M572.762899 247.554398c-3.187599 0-5.67321 0-8.150634 0-85.167728 0-170.332387-0.00921-255.502162 0-12.626575 0.004093-20.85498 5.79089-22.884197 16.144702-0.398066 2.068102-0.361227 4.240581-0.361227 6.356778-0.01535 75.68475-0.017396 151.365406-0.010233 227.049133 0.002047 14.354939 7.776104 21.991874 22.354124 21.991874 85.553515 0.004093 171.108053 0.004093 256.664637 0.004093 2.303462 0 4.623297 0 7.889691 0 0 2.455935 0 4.668323 0 6.888897 0 67.358107-0.00921 134.720308 0.00921 202.084555 0 9.269108 4.418636 16.662495 11.904121 19.493983 8.612145 3.261277 16.253172 1.759063 22.745027-5.099135 3.722788-3.933589 7.776104-7.552 11.599176-11.377118 48.228421-48.124044 96.448656-96.270601 144.664797-144.394644 61.930491-61.795415 123.866099-123.576503 185.79659-185.369871 10.30981-10.277064 10.367115-21.11797 0.178055-31.284517-88.62855-88.477101-177.24789-176.961364-265.903046-265.402649-25.213241-25.152866-50.562583-50.15326-75.754335-75.327616-6.482645-6.487761-13.715373-9.330506-22.566972-5.968945-8.608052 3.26537-12.661368 10.04068-12.661368 20.694321-0.01228 65.22656-0.00921 130.462331-0.00921 195.687868C572.762899 242.029568 572.762899 244.327914 572.762899 247.554398L572.762899 247.554398zM413.558967 745.423563c0-25.614377 0-50.693566 0-76.477812-2.51017 0-4.76963 0-7.027044 0-64.842821 0-129.686664 0.00921-194.528462-0.004093-41.089837-0.00614-71.349001-30.327726-71.351048-71.498404-0.00614-142.462642 0.254803-284.923238-0.171915-427.375647-0.11768-37.692461 28.557406-64.847937 55.0682-69.806879 5.858428-1.083681 11.910261-1.576915 17.873066-1.589195 64.262606-0.113587 128.526235-0.069585 192.790888-0.069585 2.282996 0 4.569062 0 7.229658 0 0-25.535583 0-50.605561 0-76.04086-0.913812-0.183172-1.981121-0.591471-3.050476-0.591471-68.327178 0-136.662543-0.696872-204.973348 0.295735-66.763566 0.957815-125.886105 51.624774-138.627291 117.203352-1.797949 9.238408-2.677992 18.805298-2.687202 28.217668-0.165776 144.014998-0.545422 288.024879 0.089028 432.029644 0.26606 60.150962 30.150694 103.332437 82.34238 131.394562 18.413372 9.905604 38.751582 14.378475 59.716057 14.431687 67.744917 0.183172 135.490857 0.069585 203.236797 0.065492C410.631288 745.604688 411.774321 745.504404 413.558967 745.423563L413.558967 745.423563z"  horiz-adv-x="1024" />

    
    <glyph glyph-name="danxuanyixuan" unicode="&#58975;" d="M510.567403 832.147097c-246.7137 0-446.663336-199.949635-446.663336-446.663336s199.949635-446.663336 446.663336-446.663336S957.230738 138.770061 957.230738 385.483761 757.281103 832.147097 510.567403 832.147097zM510.567403 225.953832C422.462676 225.953832 351.037474 297.379035 351.037474 385.483761c0 88.104727 71.425202 159.529929 159.529929 159.529929s159.529929-71.425202 159.529929-159.529929C670.097332 297.379035 598.67213 225.953832 510.567403 225.953832z"  horiz-adv-x="1024" />

    
    <glyph glyph-name="danxuanweixuan" unicode="&#58976;" d="M510.567403 832.147097c-246.7137 0-446.663336-199.949635-446.663336-446.663336s199.949635-446.663336 446.663336-446.663336S957.230738 138.770061 957.230738 385.483761 757.281103 832.147097 510.567403 832.147097L510.567403 832.147097zM510.567403 7.482762c-208.749875 0-378.000999 169.251124-378.000999 378.000999s169.251124 378.000999 378.000999 378.000999 378.000999-169.251124 378.000999-378.000999S719.317278 7.482762 510.567403 7.482762L510.567403 7.482762z"  horiz-adv-x="1024" />

    
    <glyph glyph-name="tubiao" unicode="&#58992;" d="M929.295093 22.525032 119.673029 22.525032 63.904067 22.525032 63.904067 78.396323l0 586.341561c0 15.451584 12.484061 27.935645 27.935645 27.935645 15.451584 0 27.935645-12.484061 27.935645-27.935645l0-586.341561 809.622065 0c15.451584 0 27.935645-12.484061 27.935645-27.935645C957.230738 35.009094 944.746677 22.525032 929.295093 22.525032L929.295093 22.525032zM845.590487 134.267613l-55.87129 0c-30.800839 0-55.87129 24.968122-55.87129 55.87129L733.847906 525.059658c0 30.800839 24.968122 55.87129 55.87129 55.87129l55.87129 0c30.800839 0 55.87129-24.968122 55.87129-55.87129l0-335.023084C901.461777 159.235735 876.391326 134.267613 845.590487 134.267613L845.590487 134.267613zM566.438693 134.267613l-55.87129 0c-30.800839 0-55.87129 24.968122-55.87129 55.87129L454.696113 692.5712c0 30.800839 24.968122 55.87129 55.87129 55.87129l55.87129 0c30.800839 0 55.87129-24.968122 55.87129-55.87129l0-502.534626C622.207655 159.235735 597.239532 134.267613 566.438693 134.267613L566.438693 134.267613zM287.184571 134.267613l-55.87129 0c-30.800839 0-55.87129 24.968122-55.87129 55.87129L175.441991 413.419406c0 30.800839 24.968122 55.87129 55.87129 55.87129l55.87129 0c30.800839 0 55.87129-24.968122 55.87129-55.87129l0-223.382832C343.055861 159.235735 318.087739 134.267613 287.184571 134.267613L287.184571 134.267613z"  horiz-adv-x="1024" />

    
    <glyph glyph-name="ai211" unicode="&#59079;" d="M399.305959 90.931026l225.374779 0 0 270.477977-225.374779 0L399.305959 90.931026zM128.827982 90.931026l225.383988 0 0 586.069387-225.383988 0L128.827982 90.931026zM669.78496 90.931026l225.383988 0 0 270.477977-225.383988 0L669.78496 90.931026zM399.305959 406.521412l495.861966 0 0 270.477977-495.861966 0L399.305959 406.521412z"  horiz-adv-x="1024" />

    
    <glyph glyph-name="ai212" unicode="&#59080;" d="M127.798537 406.61044l225.925317 0 0 271.1288-225.925317 0L127.798537 406.61044zM127.798537 90.260761l225.925317 0 0 271.1288-225.925317 0L127.798537 90.260761zM398.935523 90.260761l225.92634 0 0 271.1288-225.92634 0L398.935523 90.260761zM670.054089 90.260761l225.925317 0 0 271.1288-225.925317 0L670.054089 90.260761zM398.935523 406.61044l225.92634 0 0 271.1288-225.92634 0L398.935523 406.61044zM670.054089 406.61044l225.925317 0 0 271.1288-225.925317 0L670.054089 406.61044z"  horiz-adv-x="1024" />

    
    <glyph glyph-name="xitongshujukuzhichi" unicode="&#58947;" d="M938.666667 757.333333 938.666667 0 853.333333 0 853.333333 183.637333C775.637333 149.866667 651.776 128 512 128 372.224 128 248.362667 149.866667 170.666667 183.637333L170.666667 0 85.333333 0 85.333333 768 86.997333 768C103.808 839.573333 287.445333 896 512 896 736.554667 896 920.192 839.573333 937.002667 768L938.666667 768 938.666667 757.333333C938.666667 757.333333 938.666667 757.333333 938.666667 757.333333 938.666667 757.333333 938.666667 757.333333 938.666667 757.333333ZM853.333333 757.333333C853.312 786.794667 705.28 810.666667 522.666667 810.666667 340.053333 810.666667 192 786.794667 192 757.333333 192 727.872 340.053333 704 522.666667 704 705.28 704 853.312 727.872 853.333333 757.333333L853.333333 757.333333ZM853.333333 674.389333C775.509333 640.618667 651.797333 618.666667 512 618.666667 372.202667 618.666667 248.490667 640.618667 170.666667 674.389333L170.666667 490.666667 198.634667 490.666667C229.290667 466.325333 362.688 448 522.666667 448 682.645333 448 816.042667 466.325333 846.698667 490.666667L853.333333 490.666667 853.333333 674.389333ZM853.333333 418.304C775.637333 384.533333 651.776 362.666667 512 362.666667 372.224 362.666667 248.362667 384.533333 170.666667 418.304L170.666667 256 198.634667 256C229.290667 231.658667 362.688 213.333333 522.666667 213.333333 682.645333 213.333333 816.042667 231.658667 846.698667 256L853.333333 256 853.333333 418.304ZM522.666667-42.666667C682.645333-42.666667 816.042667-24.341333 846.698667 0L937.002667 0C920.192-71.573333 736.554667-128 512-128 287.445333-128 103.808-71.573333 86.997333 0L198.634667 0C229.290667-24.341333 362.688-42.666667 522.666667-42.666667Z"  horiz-adv-x="1024" />

    
    <glyph glyph-name="wenjian1" unicode="&#59227;" d="M904.916 509.851h-783.466c-26.176 0-44.878-25.232-41.814-55.963l62.38-375.745c2.217-22.23 21.735-40.060 43.621-40.060h655.091c21.887 0 41.407 17.829 43.621 40.060l62.38 375.745c3.065 30.731-15.639 55.963-41.813 55.963v0zM820.19 644.918h-376.713l-61.905 81.279h-173.701c-26.177 0-47.392-21.219-47.392-47.394v-68.674h705.402c-5.522 20.058-23.881 34.793-45.691 34.793v0zM908.829 531.775l2.271 20.628h-795.837l2.271-20.628h791.297zM892.281 570.222l2.96 21.405h-764.121l2.96-21.405h758.199z"  horiz-adv-x="1024" />

    
    <glyph glyph-name="caidan" unicode="&#58922;" d="M905.848832 189.44c22.84544 0 41.744384-18.75968 41.744384-41.603072 0-23.6032-18.898944-42.364928-41.744384-42.364928L301.010944 105.472c-22.833152 0-41.728 18.75968-41.728 42.364928 0 22.843392 18.896896 41.603072 41.728 41.603072L905.848832 189.44zM139.56096 680.511488c29.927424 0 53.557248-24.406016 53.557248-53.54496 0-29.927424-23.631872-53.559296-53.557248-53.559296C110.422016 573.407232 86.016 597.039104 86.016 626.966528 86.016 656.105472 110.422016 680.511488 139.56096 680.511488L139.56096 680.511488zM301.010944 578.56c-22.833152 0-41.728 19.13856-41.728 41.984s18.896896 41.984 41.728 41.984l604.837888 0c22.84544 0 41.744384-19.13856 41.744384-41.984s-18.898944-41.984-41.744384-41.984L301.010944 578.56zM301.010944 326.656c-22.833152 0-41.728 19.140608-41.728 41.984s18.896896 41.984 41.728 41.984l604.837888 0c22.84544 0 41.744384-19.140608 41.744384-41.984s-18.898944-41.984-41.744384-41.984L301.010944 326.656zM139.56096 437.164032c29.927424 0 53.557248-23.63392 53.557248-53.557248 0-29.140992-23.631872-53.557248-53.557248-53.557248C110.422016 330.049536 86.016 354.465792 86.016 383.606784 86.016 413.53216 110.422016 437.164032 139.56096 437.164032L139.56096 437.164032zM139.56096 194.592768c29.927424 0 53.557248-24.420352 53.557248-53.559296 0-29.925376-23.631872-53.54496-53.557248-53.54496C110.422016 87.488512 86.016 111.106048 86.016 141.031424 86.016 170.172416 110.422016 194.592768 139.56096 194.592768L139.56096 194.592768z"  horiz-adv-x="1024" />

    
    <glyph glyph-name="bingtu" unicode="&#59017;" d="M486.4 768C288 768 128 608 128 409.6s160-358.4 358.4-358.4L486.4 409.6l358.4 0C844.8 608 684.8 768 486.4 768zM537.6 358.4 537.6 0c198.4 0 358.4 160 358.4 358.4L537.6 358.4z"  horiz-adv-x="1024" />

    
    <glyph glyph-name="bofang" unicode="&#58894;" d="M882.734114 436.852742l0.024559 0.024559L244.016061 874.87282l-0.199545-0.188288C230.582097 887.251755 212.62819 894.985904 192.840518 894.985904c-40.704051 0-73.699536-32.66905-73.699536-72.996524 0-22.148439-0.954745-65.513086 0-64.572668l0-373.422851 0-393.071354c0-0.325411 0-25.249057 0-44.935422 0-40.302915 32.995485-72.972988 73.699536-72.972988 19.862373 0 37.892005 7.78429 51.125401 20.466124l0.050142-0.025583 638.742613 437.982216-0.024559 0.038886c13.886265 13.270235 22.549575 31.889291 22.549575 52.531424 0 0.050142 0 0.088004 0 0.150426 0 0.050142 0 0.11154 0 0.149403C905.28369 404.951171 896.620379 423.58353 882.734114 436.852742z"  horiz-adv-x="1024" />

    
    <glyph glyph-name="biaoqian2" unicode="&#58907;" d="M907.177318 476.157933c13.413498-13.428847 13.402241-35.18843-0.025583-48.602951L516.460592 37.227112c-65.218374-65.162092-138.986471-99.936083-208.94173-99.936083-17.86488 0-35.479049 2.267647-52.638871 6.876618-68.939115 18.514679-121.448026 72.037686-140.463102 143.169747-23.684422 88.61013 8.241708 184.888917 87.585801 264.157285l435.365622 434.962439c70.683852 70.609151 169.075767 48.38294 225.76079-8.372691 77.085656-77.183893 55.888891-168.588673 3.576455-220.857107L427.63352 118.587118c-58.195424-58.137095-123.295094-53.864792-157.527756-19.59222-33.858132 33.902134-37.718043 98.602715 20.409842 156.678412L587.485205 552.360476c13.43908 13.416568 35.1915 13.402241 48.601928-0.024559 13.414521-13.430894 13.405311-35.195593-0.024559-48.609091L339.093998 207.039659c-25.928532-25.90295-29.841655-49.971112-20.357654-59.46023 9.838066-9.867742 34.332946-6.314823 60.3239 19.646456l439.066921 438.640202c44.282552 44.23548 25.722848 94.248547-3.629667 123.634832-32.927947 32.965809-87.206154 49.620118-128.552841 8.324596l-435.365622-434.967556c-61.508889-61.445444-86.933955-133.527133-69.7639-197.763133 12.599969-47.127344 46.947242-82.462107 91.89085-94.536097 60.875462-16.3422 130.203434 10.390651 195.177238 75.303057l390.68705 390.32173C871.999121 489.59906 893.762797 489.588827 907.177318 476.157933L907.177318 476.157933z"  horiz-adv-x="1024" />

    
    <glyph glyph-name="tingzhi" unicode="&#58923;" d="M359.178429 771.93231l0-775.863596c0-32.459273-26.318412-58.777685-58.777685-58.777685s-58.777685 26.318412-58.777685 58.777685L241.62306 771.93231c0 32.459273 26.318412 58.777685 58.777685 58.777685S359.178429 804.391583 359.178429 771.93231zM723.599256 830.709995c-32.459273 0-58.777685-26.318412-58.777685-58.777685l0-775.863596c0-32.459273 26.318412-58.777685 58.777685-58.777685s58.777685 26.318412 58.777685 58.777685L782.37694 771.93231C782.37694 804.391583 756.058528 830.709995 723.599256 830.709995z"  horiz-adv-x="1024" />

    
    <glyph glyph-name="bj" unicode="&#58912;" d="M797.866667 435.2c-17.066667 0-34.133333-12.8-34.133333-34.133333l0-221.866667c0-29.866667-25.6-51.2-51.2-51.2L311.466667 128c-29.866667 0-51.2 25.6-51.2 51.2L260.266667 584.533333c0 29.866667 25.6 51.2 51.2 51.2l226.133333 0c17.066667 0 34.133333 12.8 34.133333 34.133333S554.666667 699.733333 537.6 699.733333L311.466667 699.733333c-64 0-119.466667-51.2-119.466667-119.466667l0-401.066667c0-64 51.2-119.466667 119.466667-119.466667l401.066667 0c64 0 119.466667 51.2 119.466667 119.466667l0 221.866667C827.733333 422.4 814.933333 435.2 797.866667 435.2zM375.466667 256c4.266667-4.266667 12.8-8.533333 21.333333-8.533333s17.066667 4.266667 21.333333 8.533333l375.466667 375.466667c12.8 12.8 12.8 34.133333 0 46.933333s-34.133333 12.8-46.933333 0L375.466667 298.666667C366.933333 285.866667 366.933333 268.8 375.466667 256z"  horiz-adv-x="1024" />

    
    <glyph glyph-name="cleared" unicode="&#59004;" d="M851.51424 659.549002C887.024794 624.125324 913.675507 584.058813 931.560384 539.349469 949.616166 494.727 958.988704 448.727347 959.934362 401.310632 960.793146 353.892494 953.227891 306.732133 937.062003 259.742673 921.07271 212.79879 896.39591 169.550656 863.293645 129.958394 861.402336 127.208301 859.683347 124.798586 858.133837 122.737792 856.413427 120.630003 854.523533 118.436762 852.288992 116.159494L732.777338-3.312282C724.952883-11.135309 715.838118-17.454406 705.435898-22.269568 695.117696-27.084723 684.625747-30.13817 673.707968-31.253306 662.961094-32.415437 652.301088-31.683405 641.982893-29.191091 631.664694-26.653197 622.981457-21.924915 616.102658-15.004813 609.136984-8.126016 604.323249 0.386323 601.573153 10.573498 598.821634 20.635341 598.133754 30.996262 599.509514 41.570816 600.885274 52.18809 603.89457 62.550438 608.450528 72.65216 613.093361 82.795187 619.28428 91.739046 627.108736 99.563507L734.839558 205.918566C759.257158 230.337587 777.74304 257.765909 790.38265 288.375852 803.107718 319.025672 809.814189 349.978842 810.761274 381.276665 811.706931 412.528914 806.548544 443.094707 795.197811 472.757569 783.933958 502.420431 766.566054 529.032694 743.095539 552.504637 720.996506 574.60082 696.148806 591.151239 668.637882 602.244192 640.951782 613.248846 612.23458 619.139263 582.571718 619.827142 552.908856 620.515023 523.676097 615.914915 494.958892 606.02682 466.156236 596.140148 439.330345 581.049516 414.482643 560.801921 413.536986 559.856265 413.106883 559.168385 413.106883 558.695556 413.106883 558.221304 412.591329 557.620299 411.731123 556.674642L301.933815 446.878758 356.531254 392.324044C364.268835 384.499588 367.020355 375.644026 364.441161 365.757354 361.861967 355.869259 349.567005 348.17298 327.469397 342.628639 321.450804 341.210154 311.649584 339.361566 297.721085 337.082875 283.963487 334.805608 267.799022 332.138115 249.055363 329.171544 230.48403 326.165096 210.794715 323.068924 190.074291 319.844576L129.372808 311.545868C116.905519 310.171532 105.986316 309.140425 96.528324 308.408395 87.070332 307.721939 79.160425 310.600211 72.713153 317.050332 67.123239 322.55337 64.373144 331.280757 64.028492 342.930566 63.85759 354.709975 64.458595 367.262714 65.748904 380.588785 67.123239 395.763444 69.015977 413.733772 71.251942 434.412894 73.657386 455.133317 76.065677 475.510513 78.55942 495.54448 81.053163 515.577023 83.287704 533.632803 85.180442 549.710392 86.984881 565.874858 88.447516 577.138713 89.307722 583.587409 92.489344 602.459244 99.883697 613.035219 111.318454 615.31391 122.840086 617.635327 133.501512 614.410979 143.13183 605.683592L198.330275 550.442422 308.211609 660.238306C310.44615 662.516997 313.112219 664.666088 316.121516 666.816602 319.045361 668.836092 321.969206 670.771555 324.720726 672.620143 364.270259 704.904924 407.347491 728.979296 453.861274 745.099612 500.29103 761.264077 547.234915 768.830756 594.695779 767.927825 642.069766 766.982168 687.983968 757.438724 732.435539 739.254769 776.797382 721.066541 816.520666 694.498427 851.51424 659.549002"  horiz-adv-x="1024" />

    
    <glyph glyph-name="shuxing1" unicode="&#58895;" d="M513.532 744.31c-199.84 0-361.841-162.002-361.841-361.841s162.002-361.841 361.841-361.841 361.841 162.002 361.841 361.841-162.002 361.841-361.841 361.841zM513.532 87.038c-163.162 0-295.43 132.267-295.43 295.43s132.267 295.43 295.43 295.43 295.43-132.267 295.43-295.43-132.267-295.43-295.43-295.43zM497.075 553.084c0-23.534 19.077-42.611 42.611-42.611s42.611 19.077 42.611 42.611-19.077 42.611-42.611 42.611c-23.534-0.005-42.611-19.081-42.611-42.611zM527.425 160.726c-31.436-7.865-74.952-7.161-96.698 1.572-21.75 8.728-29.667 40.479-17.593 70.55l54.232 135.109c12.073 30.074-3.601 61.766-34.825 70.432l-10.364 2.877c-31.225 8.665-30.606 20.017 1.379 25.224l31.040 5.055c31.985 5.21 75.948 2.328 97.697-6.403 21.75-8.728 29.615-40.457 17.479-70.506l-50.564-125.205c-12.136-30.049 3.053-62.219 33.745-71.492s30.090-23.296-1.346-31.161l-24.18-6.052z"  horiz-adv-x="1024" />

    
    <glyph glyph-name="xitongshezhi" unicode="&#58886;" d="M896 477.866667h-81.066667c-12.8 0-21.333333 8.533333-29.866666 17.066666s-4.266667 25.6 8.533333 34.133334l55.466667 55.466666c8.533333 8.533333 12.8 21.333333 12.8 29.866667 0 12.8-4.266667 21.333333-12.8 29.866667l-72.533334 72.533333c-17.066667 17.066667-46.933333 17.066667-64 0l-55.466666-55.466667c-8.533333-8.533333-17.066667-8.533333-21.333334-8.533333-8.533333 0-17.066667 4.266667-21.333333 8.533333-4.266667 4.266667-8.533333 12.8-8.533333 21.333334V768c0 25.6-21.333333 42.666667-42.666667 42.666667h-102.4c-25.6 0-42.666667-21.333333-42.666667-42.666667v-81.066667c0-21.333333-17.066667-29.866667-29.866666-29.866666-4.266667 0-12.8 0-21.333334 8.533333l-55.466666 55.466667c-17.066667 17.066667-46.933333 17.066667-64 0l-72.533334-72.533334c-8.533333-8.533333-12.8-21.333333-12.8-29.866666 0-12.8 4.266667-21.333333 12.8-29.866667l55.466667-55.466667c8.533333-8.533333 12.8-21.333333 8.533333-34.133333s-17.066667-17.066667-29.866666-17.066667H128c-25.6 0-42.666667-21.333333-42.666667-42.666666v-102.4c0-25.6 21.333333-42.666667 42.666667-42.666667h81.066667c12.8 0 21.333333-8.533333 29.866666-17.066667 4.266667-12.8 4.266667-25.6-8.533333-34.133333l-55.466667-55.466667c-8.533333-8.533333-12.8-21.333333-12.8-29.866666 0-12.8 4.266667-21.333333 12.8-29.866667l72.533334-72.533333c17.066667-17.066667 46.933333-17.066667 64 0l55.466666 55.466666c8.533333 8.533333 17.066667 8.533333 21.333334 8.533334 17.066667 0 29.866667-12.8 29.866666-29.866667V0c0-25.6 21.333333-42.666667 42.666667-42.666667h102.4c25.6 0 42.666667 21.333333 42.666667 42.666667v81.066667c0 21.333333 17.066667 29.866667 29.866666 29.866666 4.266667 0 12.8 0 21.333334-8.533333l55.466666-55.466667c17.066667-17.066667 46.933333-17.066667 64 0l72.533334 72.533334c8.533333 8.533333 12.8 21.333333 12.8 29.866666 0 12.8-4.266667 21.333333-12.8 29.866667l-55.466667 55.466667c-8.533333 8.533333-12.8 21.333333-8.533333 34.133333 4.266667 12.8 17.066667 17.066667 29.866666 17.066667H896c25.6 0 42.666667 21.333333 42.666667 42.666666v102.4c0 29.866667-21.333333 46.933333-42.666667 46.933334zM622.933333 384c0-59.733333-51.2-110.933333-110.933333-110.933333s-110.933333 51.2-110.933333 110.933333 51.2 110.933333 110.933333 110.933333 110.933333-51.2 110.933333-110.933333z"  horiz-adv-x="1024" />

    
    <glyph glyph-name="duigou1" unicode="&#59204;" d="M512 896C228.430769 896 0 667.569231 0 384s228.430769-512 512-512 512 228.430769 512 512S795.569231 896 512 896z m256-413.538462l-271.753846-271.753846c-7.876923-7.876923-19.692308-11.815385-31.507692-11.815384-11.815385 0-23.630769 3.938462-31.507693 11.815384l-169.353846 169.353846c-15.753846 15.753846-15.753846 47.261538 0 63.015385 15.753846 15.753846 47.261538 15.753846 63.015385 0l137.846154-137.846154 240.246153 240.246154c15.753846 15.753846 47.261538 15.753846 63.015385 0 19.692308-15.753846 19.692308-47.261538 0-63.015385z"  horiz-adv-x="1024" />

    
    <glyph glyph-name="Grouping" unicode="&#58902;" d="M320 832h320v-256H320zM384 192h192v-256H384zM0 192h192v-256H0zM768 192h192v-256h-192zM128 384h320v-128h64V384h320v-128h64V448H512V512H448v-64H64v-192h64V384z"  horiz-adv-x="1024" />

    
    <glyph glyph-name="biaoshilei_tianjiawenjianjia" unicode="&#58904;" d="M448.192 704L376 832H0v-832h422.4a345.984 345.984 0 0 0-25.024 64H64V640h896v-211.776c8.256-6.912 17.216-12.864 24.96-20.608 14.72-14.72 27.328-30.784 39.04-47.424V704H448.192zM64 768h274.624l36.096-64H64V768z m704-576h128v-64h-128v-128h-64v128H576v64h128V320h64v-128z m-32 256a288 288 0 0 1-0.128-576h0.064c159.168 0 288 128.896 288 287.936A287.872 287.872 0 0 1 736 448z m-0.128-512A224.256 224.256 0 0 0 512 159.936 224.256 224.256 0 0 0 736 384c59.84 0 116.096-23.296 158.464-65.6S960 219.84 960 159.936A224.256 224.256 0 0 0 735.872-64z"  horiz-adv-x="1024" />

    
    <glyph glyph-name="biaoge" unicode="&#58935;" d="M0 896h1024v-256H0zM0 896h64v-1024H0zM0-64h1024v-64H0zM0 896h1024v-64H0zM960 896h64v-1024h-64zM64 448h896v-64H64zM320 640h64v-704H320zM640 640h64v-704h-64zM64 192h896v-64H64z"  horiz-adv-x="1024" />

    
    <glyph glyph-name="xuanzekuang" unicode="&#58957;" d="M818.655-75.545h-613.312c-84.303 0-152.886 66.343-152.886 147.89v623.306c0 81.549 68.585 147.89 152.886 147.89h613.312c84.303 0 152.886-66.342 152.886-147.89v-623.306c0-81.548-68.585-147.89-152.886-147.89zM205.345 772.845c-45.318 0-82.19-34.628-82.19-77.191v-623.306c0-42.564 36.869-77.191 82.19-77.191h613.312c45.318 0 82.19 34.627 82.19 77.191v623.306c0 42.563-36.869 77.191-82.19 77.191h-613.312z"  horiz-adv-x="1024" />

    
    <glyph glyph-name="xiangmu" unicode="&#58939;" d="M583.603 182.31v-116.37c0-72.198 58.733-130.932 130.923-130.932h116.343c72.189 0 130.923 58.733 130.923 130.942v116.361c0 72.18-58.733 130.897-130.923 130.897h-28.512c-6.883 32.441-25.004 59.81-50.012 78.456-13.75 13.239-44.473 26.008-78.177 26.008-0.012 0-0.023 0-0.036 0h-108.070c23.555 10.492 42.832 26.989 56.415 47.574l65.733 61.965c23.684 23.566 38.341 56.185 38.341 92.228 0 0.125 0 0.25-0.001 0.375 0 34.955-13.617 67.831-38.34 92.545l-82.269 82.286c-23.564 23.689-56.184 38.349-92.229 38.349-0.128 0-0.256 0-0.383-0.001-34.954 0-67.84-13.617-92.554-38.349l-82.251-82.278c-23.693-23.556-38.358-56.171-38.358-92.212 0-0.125 0-0.248 0.001-0.372 0-34.945 13.617-67.831 38.349-92.564l82.26-82.26c17.347-17.393 39.588-29.898 64.482-35.271l-133.296 8.001c-32.364 0-63.45-11.952-87.525-33.633-23.253-20.949-38.914-49.929-42.594-82.539l-26.616 11.7c-72.207-0.008-130.95-58.733-130.95-130.905v-116.37c0-72.198 58.743-130.932 130.942-130.932h116.325c72.207 0 130.95 58.733 130.95 130.942v116.361c0 72.18-58.743 130.897-130.95 130.897h-20.303c10.405 23.582 33.581 39.744 60.532 39.744 0.063 0 0.127 0 0.19 0h322.172c0.051 0 0.112 0 0.173 0 26.951 0 50.127-16.163 60.367-39.323l-20.146-0.422c-72.189 0-130.923-58.717-130.923-130.897z"  horiz-adv-x="1024" />

    
    <glyph glyph-name="biaoge1" unicode="&#58899;" d="M64 800v-832h896v832H64z m608-208H896V448h-224V592z m-320-560H128v147.2h224v-147.2z m0 211.2H128V384h224v-140.8z m0 204.8H128V592h224V448z m256-416h-192v147.2h192v-147.2z m0 211.2h-192V384h192v-140.8z m0 204.8h-192V592h192V448z m288-416h-224v147.2H896v-147.2z m0 211.2h-224V384H896v-140.8z"  horiz-adv-x="1024" />

    
    <glyph glyph-name="Commonparameter" unicode="&#58890;" d="M964.267 327.111h-331.662c-0 0-0 0-0 0-31.419 0-56.889 25.47-56.889 56.889 0 31.419 25.47 56.889 56.889 56.889 0 0 0 0 0 0h331.662c0 0 0 0 0 0 31.419 0 56.889-25.47 56.889-56.889 0-31.419-25.47-56.889-56.889-56.889-0 0-0 0-0 0zM964.267 611.556h-90.453c-0.002-0-0.005-0-0.008-0-31.419 0-56.889 25.47-56.889 56.889 0 31.419 25.47 56.889 56.889 56.889 0.003 0 0.005-0 0.008-0l90.453 0c0.002 0 0.005 0 0.008 0 31.419 0 56.889-25.47 56.889-56.889 0-31.419-25.47-56.889-56.889-56.889-0.003 0-0.005 0-0.008 0zM632.604 554.667c-59.83 3.706-106.951 53.137-106.951 113.573 0 62.838 50.94 113.778 113.778 113.778 62.766 0 113.661-50.823 113.778-113.562-1.968-63.288-53.735-113.835-117.308-113.835-1.159 0-2.314 0.017-3.465 0.050zM632.604 696.889c-14.958-0.927-26.738-13.284-26.738-28.393 0-15.709 12.735-28.444 28.444-28.444 15.691 0 28.415 12.706 28.444 28.39-0.5 15.823-13.445 28.458-29.341 28.458-0.285 0-0.569-0.004-0.852-0.012zM391.396 270.222c-59.83 3.706-106.951 53.137-106.951 113.573 0 62.838 50.94 113.778 113.778 113.778 62.766 0 113.661-50.823 113.778-113.562-1.936-63.283-53.691-113.837-117.253-113.837-1.178 0-2.353 0.017-3.523 0.052zM391.396 412.444c-14.958-0.927-26.738-13.284-26.738-28.393 0-15.709 12.735-28.444 28.444-28.444 15.691 0 28.415 12.706 28.444 28.39-0.5 15.823-13.445 28.458-29.341 28.458-0.285 0-0.569-0.004-0.852-0.012zM391.396 611.556h-331.662c-0.002-0-0.005-0-0.008-0-31.419 0-56.889 25.47-56.889 56.889 0 31.419 25.47 56.889 56.889 56.889 0.003 0 0.005-0 0.008-0l331.662 0c0.002 0 0.005 0 0.008 0 31.419 0 56.889-25.47 56.889-56.889 0-31.419-25.47-56.889-56.889-56.889-0.003 0-0.005 0-0.008 0zM59.733 440.889h90.453c0 0 0 0 0 0 31.419 0 56.889-25.47 56.889-56.889 0-31.419-25.47-56.889-56.889-56.889-0 0-0 0-0 0h-90.453c-0 0-0 0-0 0-31.419 0-56.889 25.47-56.889 56.889 0 31.419 25.47 56.889 56.889 56.889 0 0 0 0 0 0zM59.733 156.444h331.662c0.002 0 0.005 0 0.008 0 31.419 0 56.889-25.47 56.889-56.889 0-31.419-25.47-56.889-56.889-56.889-0.003 0-0.005 0-0.008 0l-331.662-0c-0.002-0-0.005-0-0.008-0-31.419 0-56.889 25.47-56.889 56.889 0 31.419 25.47 56.889 56.889 56.889 0.003 0 0.005-0 0.008-0zM632.604 213.333c59.83-3.706 106.951-53.137 106.951-113.573 0-62.838-50.94-113.778-113.778-113.778-62.766 0-113.661 50.823-113.778 113.562 1.968 63.288 53.735 113.835 117.308 113.835 1.159 0 2.314-0.017 3.465-0.050zM632.604 71.111c14.958 0.927 26.738 13.284 26.738 28.393 0 15.709-12.735 28.444-28.444 28.444-15.691 0-28.415-12.706-28.444-28.39 0.5-15.823 13.445-28.458 29.341-28.458 0.285 0 0.569 0.004 0.852 0.012zM873.813 156.444h90.453c0.002 0 0.005 0 0.008 0 31.419 0 56.889-25.47 56.889-56.889 0-31.419-25.47-56.889-56.889-56.889-0.003 0-0.005 0-0.008 0l-90.453-0c-0.002-0-0.005-0-0.008-0-31.419 0-56.889 25.47-56.889 56.889 0 31.419 25.47 56.889 56.889 56.889 0.003 0 0.005-0 0.008-0z"  horiz-adv-x="1024" />

    
    <glyph glyph-name="biaoqian1" unicode="&#58885;" d="M695.7 777.4H326.9c-58.2 0-105.4-47.2-105.4-105.4v-579.6c0-58.2 47.2-105.4 105.4-105.4l184.4 184.4L695.7-13c58.2 0 105.4 47.2 105.4 105.4V672c0 58.2-47.1 105.4-105.4 105.4z"  horiz-adv-x="1024" />

    
    <glyph glyph-name="shangyiyehoutuifanhui-yuankuang" unicode="&#59631;" d="M512 832C264.8 832 64 631.2 64 384s200.8-448 448-448 448 200.8 448 448S759.2 832 512 832z m158.4-674.4L625.6 112l-272 272 272 272 45.6-45.6L444 384l226.4-226.4z"  horiz-adv-x="1024" />

    
    <glyph glyph-name="xiayiyeqianjinchakangengduo-yuankuang" unicode="&#59632;" d="M512 832C264.8 832 64 631.2 64 384s200.8-448 448-448 448 200.8 448 448S759.2 832 512 832zM398.4 112l-45.6 45.6L580 384 353.6 610.4l45.6 45.6 272-272-272.8-272z"  horiz-adv-x="1024" />

    
    <glyph glyph-name="lianjiequzhong" unicode="&#58971;" d="M995.555556 204.8l-136.533334 113.777778v-62.577778H654.222222V156.444444h204.8v-65.422222zM264.533333 42.666667l-162.133333 162.133333 221.866667 221.866667-39.822223 39.822222-261.688888-261.688889 241.777777-241.777778 261.688889 261.688889-39.822222 39.822222zM665.6 847.644444l-258.844444-261.688888 39.822222-39.822223 219.022222 221.866667 162.133333-162.133333-221.866666-221.866667 39.822222-39.822222 261.688889 261.688889zM304.355556 326.4l241.351111 241.351111 80.469333-80.469333-241.351111-241.351111z"  horiz-adv-x="1024" />

    
    <glyph glyph-name="dmsshujukuguanli" unicode="&#59196;" d="M911.850667 196.992L519.936-21.333333 128 196.992l82.346667 45.866667 311.637333-174.378667 309.568 173.12 80.298667-44.586667z m-196.266667 248.021333l196.266667-109.333333-391.914667-218.176L128 335.68l190.08 105.834667v-37.12l-122.645333-68.693334 324.48-181.546666 324.48 181.546666-128.832 72.170667v37.12z m-195.648 235.797334c-88.789333 0-160.746667 24.277333-160.746667 54.250666C359.189333 765.034667 431.146667 789.333333 519.936 789.333333c88.746667 0 160.725333-24.298667 160.725333-54.272s-71.957333-54.250667-160.725333-54.250666z m160.576 36.48v-121.536c0-29.994667-72.042667-54.272-160.746667-54.272-88.853333 0-160.725333 24.277333-160.725333 54.272V717.290667v-0.64c0-29.973333 72.021333-54.250667 160.725333-54.250667 88.853333 0 160.746667 24.277333 160.746667 54.250667v0.64z m0-143.125334v-121.536c0-29.994667-72.042667-54.272-160.746667-54.272-88.853333 0-160.725333 24.277333-160.725333 54.272v121.536-0.64c0-29.973333 72.021333-54.250667 160.725333-54.250666 88.853333 0 160.746667 24.277333 160.746667 54.272v0.64z m0-141.866666v-121.536c0-29.973333-72.042667-54.250667-160.746667-54.250667-88.853333 0-160.725333 24.277333-160.725333 54.250667v121.557333-0.64c0-29.994667 72.021333-54.272 160.725333-54.272 88.853333 0 160.746667 24.277333 160.746667 54.272v0.64z"  horiz-adv-x="1024" />

    
    <glyph glyph-name="NoSQLshujukuredis" unicode="&#59199;" d="M510.208 682.218667l-101.802667-34.773334-65.706666 38.613334L511.509333 746.666667l170.133334-62.165334-64.448-37.056-106.965334 34.773334z m1.28-201.429334l101.824 34.816 65.728-38.698666-168.832-60.522667-170.069333 62.08 64.405333 37.141333 106.944-34.816z m-155.093333 51.904l-69.12-33.493333-221.653334 82.496 225.514667 83.370667 65.749333-38.848-122.410666-44.522667 121.898666-49.002667z m434.645333 49.002667l-122.410667 44.522667 65.706667 38.848 225.557333-83.370667L738.176 499.2l-69.098667 33.493333 121.962667 49.002667zM511.488 287.253333L64.96 462.357333 64 551.104l447.488-174.933333 447.573333 172.992v-89.429334l-447.573333-172.48z m1.024-33.664L960 426.624v-89.493333l-447.488-172.416-446.549333 175.061333-1.002667 88.746667 447.552-174.933334z m-447.573333 51.349334l447.573333-174.933334L960 302.997333v-89.472l-447.488-172.48-446.549333 175.104-1.002667 88.768z"  horiz-adv-x="1024" />

    
    <glyph glyph-name="guanbi1" unicode="&#58911;" d="M633.355 384l339.75 339.75c15.227 15.475 24.633 36.723 24.633 60.17 0 47.388-38.415 85.804-85.804 85.804-23.451 0-44.703-9.407-60.195-24.657l-339.737-339.709-339.75 339.724c-15.626 16.162-37.499 26.196-61.716 26.196-47.388 0-85.804-38.415-85.804-85.804 0-24.217 10.033-46.093 26.167-61.694l339.744-339.774-339.724-339.75c-16.162-15.626-26.196-37.499-26.196-61.716 0-47.388 38.415-85.804 85.804-85.804 24.217 0 46.093 10.033 61.694 26.167l339.774 339.744 339.75-339.75c15.475-15.227 36.723-24.633 60.17-24.633 47.388 0 85.804 38.415 85.804 85.804 0 23.451-9.407 44.703-24.657 60.195l-339.709 339.737z"  horiz-adv-x="1024" />

    
    <glyph glyph-name="morenbumen" unicode="&#58925;" d="M896 0c0 35.376-28.626 64-64 64V448c35.376 0 64 28.626 64 64h128L512 896 0 512h128c0-35.376 28.626-64 64-64v-384c-35.376 0-64-28.626-64-64-70.688 0-128-57.312-128-128h1024c0 70.688-57.312 128-128 128zM512 768c53 0 96-43 96-96s-43-96-96-96-96 43-96 96 43 96 96 96z m-128-768c0 35.376-28.626 64-64 64V448c35.376 0 64 28.626 64 64h256c0-35.376 28.626-64 64-64v-384c-35.376 0-64-28.626-64-64H384z"  horiz-adv-x="1024" />

    
    <glyph glyph-name="fenquxuanzhong" unicode="&#58977;" d="M512 372.363636c-134.981818 0-244.363636 109.381818-244.363636 244.363637S377.018182 861.090909 512 861.090909 756.363636 751.709091 756.363636 616.727273 646.981818 372.363636 512 372.363636zM244.363636-93.090909C109.381818-93.090909 0 16.290909 0 151.272727s109.381818 244.363636 244.363636 244.363637S488.727273 286.254545 488.727273 151.272727s-109.381818-244.363636-244.363637-244.363636zM779.636364-93.090909C644.654545-93.090909 535.272727 16.290909 535.272727 151.272727s109.381818 244.363636 244.363637 244.363637S1024 286.254545 1024 151.272727s-109.381818-244.363636-244.363636-244.363636z"  horiz-adv-x="1024" />

    
    <glyph glyph-name="wenjianliebiao" unicode="&#58970;" d="M287.108 151.839h427.796V190.73H287.108v-38.891z m194.453 272.233H287.108v-38.891h194.453v38.891zM287.108 268.508h427.796V307.4H287.108v-38.892z m557.038 298.556l1.179 6.875L605.308 832.421H228.773c-42.957 0-77.781-34.823-77.781-77.781v-738.918c0-42.958 34.824-77.781 77.781-77.781H773.24c42.958 0 77.781 34.823 77.781 77.781V560.189l-6.875 6.875zM617.678 761.225l170.241-181.591H656.568c-21.477 0-38.891 17.411-38.891 38.889V761.225z m194.454-745.503c0-21.479-17.413-38.892-38.892-38.892H228.773c-21.477 0-38.891 17.413-38.891 38.892V754.64c0 21.479 17.413 38.892 38.891 38.892h350.015v-175.009c0-42.957 34.824-77.781 77.781-77.781h155.564v-525.02z m-330.571 525.02H287.108v-38.889h194.453v38.889z"  horiz-adv-x="1024" />

    
    <glyph glyph-name="xiazaishibai" unicode="&#59059;" d="M512 832C265.6 832 64 630.4 64 384s201.6-448 448-448 448 201.6 448 448S758.4 832 512 832z m0-688c-25.6 0-48 22.4-48 48s22.4 48 48 48 48-22.4 48-48-22.4-48-48-48z m41.6 185.6c0-32-12.8-57.6-41.6-57.6s-41.6 25.6-41.6 57.6l-16 236.8c0 32 25.6 57.6 54.4 57.6 28.8 0 57.6-25.6 57.6-57.6l-12.8-236.8z"  horiz-adv-x="1024" />

    
    <glyph glyph-name="duoweiduyingshoufenxi" unicode="&#58938;" d="M928 528a64 64 0 0 1-24.832-4.992L479.232 755.904A63.616 63.616 0 0 1 352 752c0-5.504 1.792-10.432 3.136-15.488L129.536 613.184A62.208 62.208 0 0 1 96 624a64 64 0 0 1-64-64c0-29.76 20.736-53.696 48.256-60.8 0.128-0.512 0-1.088 0.128-1.536l59.584-222.336A62.784 62.784 0 0 1 128 240a64 64 0 0 1 64-64c2.688 0 4.928 1.216 7.488 1.472l214.976-178.432c1.664-1.344 3.712-1.984 5.504-3.008a63.424 63.424 0 0 1 60.032-44.032 64 64 0 0 1 64 64c0 5.312-1.792 10.048-3.008 15.04l355.584 378.368a62.144 62.144 0 0 1 31.424-9.408 64 64 0 1 1 0 128zM472.448 322.688c21.696 15.872 36.16 40.512 38.656 68.736l306.432 27.392-314.752-334.976-30.336 238.848z m-254.784-24.256a62.528 62.528 0 0 1-18.752 4.16l-54.016 201.472L323.84 425.472A95.36 95.36 0 0 1 320 400c0-8.576 1.472-16.768 3.648-24.704L217.664 298.432z m628.8 187.136l-351.36-31.296a96.192 96.192 0 0 1-40.896 33.728L451.584 700.16l1.792 1.28 393.088-215.872z m-456.256 6.464a94.336 94.336 0 0 1-28.8-13.184l-190.784 83.84L387.84 681.344l2.368-189.312z m-138.752-274.496A62.72 62.72 0 0 1 256 240c0 2.24-1.088 4.096-1.28 6.336l105.088 76.16c14.336-10.432 31.616-16.768 50.432-17.92l30.464-239.296c-1.024-0.832-2.24-1.28-3.2-2.176l-186.048 154.432z"  horiz-adv-x="1024" />

    
    <glyph glyph-name="biaoge2" unicode="&#58880;" d="M56.889 839.111V-71.11H967.11V839.11H56.89z m56.889-227.555h227.555v-170.667H113.778V611.556z m512-170.667H398.222V611.556h227.556v-170.667z m0-56.889v-170.667H398.222V384h227.556z m-512 0h227.555v-170.667H113.778V384z m0-398.222V156.444h227.555v-170.666H113.778z m284.444 0V156.444h227.556v-170.666H398.222z m512 0H682.667V156.444h227.555v-170.666z m0 227.555H682.667V384h227.555v-170.667z m0 227.556H682.667V611.556h227.555v-170.667zM113.778 668.444V782.222h796.444v-113.778H113.778z"  horiz-adv-x="1024" />

    
    <glyph glyph-name="xuanze" unicode="&#58905;" d="M930.909091 896H93.090909C41.890909 896 0 854.109091 0 802.909091v-837.818182c0-51.2 41.890909-93.090909 93.090909-93.090909h837.818182c51.2 0 93.090909 41.890909 93.090909 93.090909V802.909091c0 51.2-41.890909 93.090909-93.090909 93.090909z m-79.127273-335.127273L481.745455 167.563636c-9.309091-9.309091-23.272727-9.309091-32.581819 0l-230.4 230.4c-9.309091 9.309091-9.309091 23.272727 0 32.581819 9.309091 9.309091 23.272727 9.309091 32.581819 0l214.10909-214.109091L819.2 593.454545c9.309091 9.309091 23.272727 9.309091 32.581818 0 9.309091-9.309091 9.309091-23.272727 0-32.581818z"  horiz-adv-x="1024" />

    
    <glyph glyph-name="guolv" unicode="&#59226;" d="M227.555556 725.333333m-56.888889 0a56.888889 56.888889 0 1 1 113.777777 0 56.888889 56.888889 0 1 1-113.777777 0ZM113.777778 554.666667m-56.888889 0a56.888889 56.888889 0 1 1 113.777778 0 56.888889 56.888889 0 1 1-113.777778 0ZM284.444444 440.888889m-56.888888 0a56.888889 56.888889 0 1 1 113.777777 0 56.888889 56.888889 0 1 1-113.777777 0ZM625.777778 440.888889m-56.888889 0a56.888889 56.888889 0 1 1 113.777778 0 56.888889 56.888889 0 1 1-113.777778 0ZM625.777778 270.222222m-56.888889 0a56.888889 56.888889 0 1 1 113.777778 0 56.888889 56.888889 0 1 1-113.777778 0ZM796.444444 270.222222m-56.888888 0a56.888889 56.888889 0 1 1 113.777777 0 56.888889 56.888889 0 1 1-113.777777 0ZM796.444444 440.888889m-56.888888 0a56.888889 56.888889 0 1 1 113.777777 0 56.888889 56.888889 0 1 1-113.777777 0ZM170.666667 42.666667m-56.888889 0a56.888889 56.888889 0 1 1 113.777778 0 56.888889 56.888889 0 1 1-113.777778 0ZM256 241.777778m-85.333333 0a85.333333 85.333333 0 1 1 170.666666 0 85.333333 85.333333 0 1 1-170.666666 0ZM398.222222-128l284.444445 170.666667v113.777777h-56.888889v-79.644444l-170.666667-102.4V736.711111l170.666667-102.4V554.666667h56.888889V668.444444L398.222222 839.111111z"  horiz-adv-x="1024" />

    
    <glyph glyph-name="tingzhishangbao" unicode="&#58896;" d="M512-128A512 512 0 1 0 512 896a512 512 0 0 0 0-1024zM256 469.312a85.312 85.312 0 1 1 0-170.624h512a85.312 85.312 0 1 1 0 170.624H256z"  horiz-adv-x="1024" />

    
    <glyph glyph-name="navicon-dphf" unicode="&#58955;" d="M990.72 110.08000000000004H38.4c-14.336 0-25.6 11.264-25.6 25.6v645.12c0 14.336 11.264 25.6 25.6 25.6h952.32c14.336 0 25.6-11.264 25.6-25.6v-645.12c0-14.336-11.264-25.6-25.6-25.6z m-926.72 51.2h901.12v593.92h-901.12v-593.92zM770.56-48.639999999999986h-512c-14.336 0-25.6 11.264-25.6 25.6s11.264 25.6 25.6 25.6h512c14.336 0 25.6-11.264 25.6-25.6s-11.264-25.6-25.6-25.6zM954.88 432.64h-890.88c-14.336 0-25.6 11.264-25.6 25.6s11.264 25.6 25.6 25.6h890.88c14.336 0 25.6-11.264 25.6-25.6s-11.264-25.6-25.6-25.6zM514.56 110.08000000000004c-14.336 0-25.6 11.264-25.6 25.6v614.4c0 14.336 11.264 25.6 25.6 25.6s25.6-11.264 25.6-25.6v-614.4c0-14.336-11.264-25.6-25.6-25.6z"  horiz-adv-x="1030" />

    
    <glyph glyph-name="shujuku" unicode="&#58901;" d="M512 96c-247.42 0-448 71.63-448 160v-160c0-88.37 200.58-160 448-160s448 71.63 448 160V256c0-88.37-200.58-160-448-160zM512 288c-247.42 0-448 71.63-448 160v-160c0-88.37 200.58-160 448-160s448 71.63 448 160V448c0-88.37-200.58-160-448-160zM512 480c-247.42 0-448 71.63-448 160v-160c0-88.37 200.58-160 448-160s448 71.63 448 160V640c0-88.37-200.58-160-448-160zM64 672a448 160 0 1 1 896 0 448 160 0 1 1-896 0Z"  horiz-adv-x="1024" />

    
    <glyph glyph-name="pingtaizijiankong" unicode="&#58917;" d="M895.89 736l0.11-0.11v-575.78l-0.11-0.11H128.11l-0.11 0.11V735.89l0.11 0.11h767.78m0.11 64H128a64.19 64.19 0 0 1-64-64v-576a64.19 64.19 0 0 1 64-64h768a64.19 64.19 0 0 1 64 64V736a64.19 64.19 0 0 1-64 64zM832 32H192v-64h640v64zM576 160H448v-128h128V160zM128 224h768v-64H128z"  horiz-adv-x="1024" />

    
    <glyph glyph-name="touping" unicode="&#59358;" d="M853.015273 81.454545h-161.419637a34.909091 34.909091 0 0 0 0 69.818182h161.419637A54.690909 54.690909 0 0 1 907.636364 205.893818V631.924364A54.690909 54.690909 0 0 1 853.015273 686.545455H170.961455A54.667636 54.667636 0 0 1 116.363636 631.924364v-426.030546A54.667636 54.667636 0 0 1 170.961455 151.272727h141.358545a34.909091 34.909091 0 0 0 0-69.818182H170.961455A124.555636 124.555636 0 0 0 46.545455 205.893818V631.924364A124.555636 124.555636 0 0 0 170.961455 756.363636h682.053818A124.578909 124.578909 0 0 0 977.454545 631.924364v-426.030546A124.578909 124.578909 0 0 0 853.015273 81.454545zM674.909091-11.636364H349.090909l162.909091 209.454546 162.909091-209.454546z"  horiz-adv-x="1024" />

    


  </font>
</defs>
</svg>
